<svg xmlns="http://www.w3.org/2000/svg" width="1200" height="720" viewBox="0 0 1200 720">
<rect width="100%" height="100%" fill="white"/>
<text x="105" y="30" font-family="sans-serif" font-size="20">W3 Kelly growth</text>
<line x1="105" y1="48" x2="105" y2="642" stroke="#c8c8c8" stroke-width="1"/>
<line x1="105" y1="48" x2="900" y2="48" stroke="#c8c8c8" stroke-width="1"/>
<text x="105" y="666" text-anchor="middle" font-family="sans-serif" font-size="12">0.75</text>
<text x="95.00" y="52.00" text-anchor="end" font-family="sans-serif" font-size="12">1.000111341</text>
<line x1="184.500000000" y1="48.000000000" x2="184.500000000" y2="642.000000000" stroke="#c8c8c8" stroke-width="1"/>
<line x1="105.000000000" y1="107.400000000" x2="900.000000000" y2="107.400000000" stroke="#c8c8c8" stroke-width="1"/>
<line x1="264.000000000" y1="48.000000000" x2="264.000000000" y2="642.000000000" stroke="#c8c8c8" stroke-width="1"/>
<line x1="105.000000000" y1="166.800000000" x2="900.000000000" y2="166.800000000" stroke="#c8c8c8" stroke-width="1"/>
<text x="264.000000000" y="666.000000000" text-anchor="middle" font-family="sans-serif" font-size="12">0.85</text>
<text x="95.00" y="170.80" text-anchor="end" font-family="sans-serif" font-size="12">1.000102080</text>
<line x1="343.500000000" y1="48.000000000" x2="343.500000000" y2="642.000000000" stroke="#c8c8c8" stroke-width="1"/>
<line x1="105.000000000" y1="226.200000000" x2="900.000000000" y2="226.200000000" stroke="#c8c8c8" stroke-width="1"/>
<line x1="423.000000000" y1="48.000000000" x2="423.000000000" y2="642.000000000" stroke="#c8c8c8" stroke-width="1"/>
<line x1="105.000000000" y1="285.600000000" x2="900.000000000" y2="285.600000000" stroke="#c8c8c8" stroke-width="1"/>
<text x="423.000000000" y="666.000000000" text-anchor="middle" font-family="sans-serif" font-size="12">0.95</text>
<text x="95.00" y="289.60" text-anchor="end" font-family="sans-serif" font-size="12">1.000092818</text>
<line x1="502.500000000" y1="48.000000000" x2="502.500000000" y2="642.000000000" stroke="#c8c8c8" stroke-width="1"/>
<line x1="105.000000000" y1="345.000000000" x2="900.000000000" y2="345.000000000" stroke="#c8c8c8" stroke-width="1"/>
<line x1="582.000000000" y1="48.000000000" x2="582.000000000" y2="642.000000000" stroke="#c8c8c8" stroke-width="1"/>
<line x1="105.000000000" y1="404.400000000" x2="900.000000000" y2="404.400000000" stroke="#c8c8c8" stroke-width="1"/>
<text x="582.000000000" y="666.000000000" text-anchor="middle" font-family="sans-serif" font-size="12">1.05</text>
<text x="95.00" y="408.40" text-anchor="end" font-family="sans-serif" font-size="12">1.000083556</text>
<line x1="661.500000000" y1="48.000000000" x2="661.500000000" y2="642.000000000" stroke="#c8c8c8" stroke-width="1"/>
<line x1="105.000000000" y1="463.800000000" x2="900.000000000" y2="463.800000000" stroke="#c8c8c8" stroke-width="1"/>
<line x1="741.000000000" y1="48.000000000" x2="741.000000000" y2="642.000000000" stroke="#c8c8c8" stroke-width="1"/>
<line x1="105.000000000" y1="523.200000000" x2="900.000000000" y2="523.200000000" stroke="#c8c8c8" stroke-width="1"/>
<text x="741.000000000" y="666.000000000" text-anchor="middle" font-family="sans-serif" font-size="12">1.15</text>
<text x="95.00" y="527.20" text-anchor="end" font-family="sans-serif" font-size="12">1.000074294</text>
<line x1="820.500000000" y1="48.000000000" x2="820.500000000" y2="642.000000000" stroke="#c8c8c8" stroke-width="1"/>
<line x1="105.000000000" y1="582.600000000" x2="900.000000000" y2="582.600000000" stroke="#c8c8c8" stroke-width="1"/>
<line x1="900.000000000" y1="48.000000000" x2="900.000000000" y2="642.000000000" stroke="#c8c8c8" stroke-width="1"/>
<line x1="105.000000000" y1="642.000000000" x2="900.000000000" y2="642.000000000" stroke="#c8c8c8" stroke-width="1"/>
<text x="900.000000000" y="666.000000000" text-anchor="middle" font-family="sans-serif" font-size="12">1.25</text>
<text x="95.00" y="646.00" text-anchor="end" font-family="sans-serif" font-size="12">1.000065032</text>
<rect x="105" y="48" width="795" height="594" fill="none" stroke="#222" stroke-width="1.5"/>
<path d="M 105 465.528 L 184.5 432.693 L 264 412.089 L 343.5 377.823 L 423 348.425 L 502.5 328.315 L 582 312.348 L 661.5 303.913 L 741 296.498 L 820.5 289.747 L 900 301.373" fill="none" stroke="#1f77b4" stroke-width="3"/>
<line x1="105" y1="357.593598569" x2="105" y2="573.461538462" stroke="#1f77b4" stroke-width="2" opacity="0.85"/>
<line x1="100" y1="357.593598569" x2="110" y2="357.593598569" stroke="#1f77b4" stroke-width="2" opacity="0.85"/>
<line x1="100" y1="573.461538462" x2="110" y2="573.461538462" stroke="#1f77b4" stroke-width="2" opacity="0.85"/>
<circle cx="105" cy="465.527568515" r="4" fill="#1f77b4"/>
<line x1="184.5" y1="320.064474579" x2="184.5" y2="545.321878893" stroke="#1f77b4" stroke-width="2" opacity="0.85"/>
<line x1="179.5" y1="320.064474579" x2="189.5" y2="320.064474579" stroke="#1f77b4" stroke-width="2" opacity="0.85"/>
<line x1="179.5" y1="545.321878893" x2="189.5" y2="545.321878893" stroke="#1f77b4" stroke-width="2" opacity="0.85"/>
<circle cx="184.5" cy="432.693176736" r="4" fill="#1f77b4"/>
<line x1="264" y1="291.755795606" x2="264" y2="532.422939561" stroke="#1f77b4" stroke-width="2" opacity="0.85"/>
<line x1="259" y1="291.755795606" x2="269" y2="291.755795606" stroke="#1f77b4" stroke-width="2" opacity="0.85"/>
<line x1="259" y1="532.422939561" x2="269" y2="532.422939561" stroke="#1f77b4" stroke-width="2" opacity="0.85"/>
<circle cx="264" cy="412.089367584" r="4" fill="#1f77b4"/>
<line x1="343.5" y1="245.171478657" x2="343.5" y2="510.473968597" stroke="#1f77b4" stroke-width="2" opacity="0.85"/>
<line x1="338.5" y1="245.171478657" x2="348.5" y2="245.171478657" stroke="#1f77b4" stroke-width="2" opacity="0.85"/>
<line x1="338.5" y1="510.473968597" x2="348.5" y2="510.473968597" stroke="#1f77b4" stroke-width="2" opacity="0.85"/>
<circle cx="343.5" cy="377.822723627" r="4" fill="#1f77b4"/>
<line x1="423" y1="211.734906111" x2="423" y2="485.116085818" stroke="#1f77b4" stroke-width="2" opacity="0.85"/>
<line x1="418" y1="211.734906111" x2="428" y2="211.734906111" stroke="#1f77b4" stroke-width="2" opacity="0.85"/>
<line x1="418" y1="485.116085818" x2="428" y2="485.116085818" stroke="#1f77b4" stroke-width="2" opacity="0.85"/>
<circle cx="423" cy="348.425495965" r="4" fill="#1f77b4"/>
<line x1="502.5" y1="186.928566159" x2="502.5" y2="469.701872106" stroke="#1f77b4" stroke-width="2" opacity="0.85"/>
<line x1="497.5" y1="186.928566159" x2="507.5" y2="186.928566159" stroke="#1f77b4" stroke-width="2" opacity="0.85"/>
<line x1="497.5" y1="469.701872106" x2="507.5" y2="469.701872106" stroke="#1f77b4" stroke-width="2" opacity="0.85"/>
<circle cx="502.5" cy="328.315219133" r="4" fill="#1f77b4"/>
<line x1="582" y1="163.191687909" x2="582" y2="461.503517751" stroke="#1f77b4" stroke-width="2" opacity="0.85"/>
<line x1="577" y1="163.191687909" x2="587" y2="163.191687909" stroke="#1f77b4" stroke-width="2" opacity="0.85"/>
<line x1="577" y1="461.503517751" x2="587" y2="461.503517751" stroke="#1f77b4" stroke-width="2" opacity="0.85"/>
<circle cx="582" cy="312.34760283" r="4" fill="#1f77b4"/>
<line x1="661.5" y1="141.61551482" x2="661.5" y2="466.209913529" stroke="#1f77b4" stroke-width="2" opacity="0.85"/>
<line x1="656.5" y1="141.61551482" x2="666.5" y2="141.61551482" stroke="#1f77b4" stroke-width="2" opacity="0.85"/>
<line x1="656.5" y1="466.209913529" x2="666.5" y2="466.209913529" stroke="#1f77b4" stroke-width="2" opacity="0.85"/>
<circle cx="661.5" cy="303.912714174" r="4" fill="#1f77b4"/>
<line x1="741" y1="132.414051979" x2="741" y2="460.581035505" stroke="#1f77b4" stroke-width="2" opacity="0.85"/>
<line x1="736" y1="132.414051979" x2="746" y2="132.414051979" stroke="#1f77b4" stroke-width="2" opacity="0.85"/>
<line x1="736" y1="460.581035505" x2="746" y2="460.581035505" stroke="#1f77b4" stroke-width="2" opacity="0.85"/>
<circle cx="741" cy="296.497543742" r="4" fill="#1f77b4"/>
<line x1="820.5" y1="116.538461538" x2="820.5" y2="462.955296922" stroke="#1f77b4" stroke-width="2" opacity="0.85"/>
<line x1="815.5" y1="116.538461538" x2="825.5" y2="116.538461538" stroke="#1f77b4" stroke-width="2" opacity="0.85"/>
<line x1="815.5" y1="462.955296922" x2="825.5" y2="462.955296922" stroke="#1f77b4" stroke-width="2" opacity="0.85"/>
<circle cx="820.5" cy="289.74687923" r="4" fill="#1f77b4"/>
<line x1="900" y1="118.534709371" x2="900" y2="484.211669453" stroke="#1f77b4" stroke-width="2" opacity="0.85"/>
<line x1="895" y1="118.534709371" x2="905" y2="118.534709371" stroke="#1f77b4" stroke-width="2" opacity="0.85"/>
<line x1="895" y1="484.211669453" x2="905" y2="484.211669453" stroke="#1f77b4" stroke-width="2" opacity="0.85"/>
<circle cx="900" cy="301.373189412" r="4" fill="#1f77b4"/>
<line x1="502.5" y1="48" x2="502.5" y2="642" stroke="#1f77b4" stroke-width="1.5" stroke-dasharray="7,5" opacity="0.8"/>
<line x1="930" y1="70" x2="972" y2="70" stroke="#1f77b4" stroke-width="3"/>
<text x="982" y="74" font-family="sans-serif" font-size="12">W3</text>
<text x="982" y="90" font-family="sans-serif" font-size="11" fill="#555">1/E[X^2]=1.0000</text>
<text x="930" y="685" font-family="sans-serif" font-size="11" fill="#555">Error bars: mean +/- sample stddev</text>
<text x="502.5" y="698" text-anchor="middle" font-family="sans-serif" font-size="14">Kelly multiplier</text>
<text x="24" y="345" transform="rotate(-90 24 345)" text-anchor="middle" font-family="sans-serif" font-size="14">Expected growth per round</text>
</svg>
