<svg xmlns="http://www.w3.org/2000/svg" width="1100" height="680" viewBox="0 0 1100 680">
<rect width="100%" height="100%" fill="white"/>
<text x="95" y="30" font-family="sans-serif" font-size="20">W2 conditional second moment</text>
<line x1="95" y1="48" x2="95" y2="604" stroke="#b8b8b8" stroke-width="1.5"/>
<line x1="95" y1="48" x2="870" y2="48" stroke="#b8b8b8" stroke-width="1.5"/>
<text x="95" y="627" text-anchor="middle" font-family="sans-serif" font-size="11">-5.00</text>
<text x="86.00" y="52.00" text-anchor="end" font-family="sans-serif" font-size="11">1.6552</text>
<line x1="133.7500" y1="48.0000" x2="133.7500" y2="604.0000" stroke="#dddddd" stroke-width="1.1"/>
<line x1="95.0000" y1="75.8000" x2="870.0000" y2="75.8000" stroke="#dddddd" stroke-width="1.1"/>
<line x1="172.5000" y1="48.0000" x2="172.5000" y2="604.0000" stroke="#b8b8b8" stroke-width="1.5"/>
<line x1="95.0000" y1="103.6000" x2="870.0000" y2="103.6000" stroke="#b8b8b8" stroke-width="1.5"/>
<text x="172.5000" y="627.0000" text-anchor="middle" font-family="sans-serif" font-size="11">-4.00</text>
<text x="86.00" y="107.60" text-anchor="end" font-family="sans-serif" font-size="11">1.6395</text>
<line x1="211.2500" y1="48.0000" x2="211.2500" y2="604.0000" stroke="#dddddd" stroke-width="1.1"/>
<line x1="95.0000" y1="131.4000" x2="870.0000" y2="131.4000" stroke="#dddddd" stroke-width="1.1"/>
<line x1="250.0000" y1="48.0000" x2="250.0000" y2="604.0000" stroke="#b8b8b8" stroke-width="1.5"/>
<line x1="95.0000" y1="159.2000" x2="870.0000" y2="159.2000" stroke="#b8b8b8" stroke-width="1.5"/>
<text x="250.0000" y="627.0000" text-anchor="middle" font-family="sans-serif" font-size="11">-3.00</text>
<text x="86.00" y="163.20" text-anchor="end" font-family="sans-serif" font-size="11">1.6238</text>
<line x1="288.7500" y1="48.0000" x2="288.7500" y2="604.0000" stroke="#dddddd" stroke-width="1.1"/>
<line x1="95.0000" y1="187.0000" x2="870.0000" y2="187.0000" stroke="#dddddd" stroke-width="1.1"/>
<line x1="327.5000" y1="48.0000" x2="327.5000" y2="604.0000" stroke="#b8b8b8" stroke-width="1.5"/>
<line x1="95.0000" y1="214.8000" x2="870.0000" y2="214.8000" stroke="#b8b8b8" stroke-width="1.5"/>
<text x="327.5000" y="627.0000" text-anchor="middle" font-family="sans-serif" font-size="11">-2.00</text>
<text x="86.00" y="218.80" text-anchor="end" font-family="sans-serif" font-size="11">1.6081</text>
<line x1="366.2500" y1="48.0000" x2="366.2500" y2="604.0000" stroke="#dddddd" stroke-width="1.1"/>
<line x1="95.0000" y1="242.6000" x2="870.0000" y2="242.6000" stroke="#dddddd" stroke-width="1.1"/>
<line x1="405.0000" y1="48.0000" x2="405.0000" y2="604.0000" stroke="#b8b8b8" stroke-width="1.5"/>
<line x1="95.0000" y1="270.4000" x2="870.0000" y2="270.4000" stroke="#b8b8b8" stroke-width="1.5"/>
<text x="405.0000" y="627.0000" text-anchor="middle" font-family="sans-serif" font-size="11">-1.00</text>
<text x="86.00" y="274.40" text-anchor="end" font-family="sans-serif" font-size="11">1.5924</text>
<line x1="443.7500" y1="48.0000" x2="443.7500" y2="604.0000" stroke="#dddddd" stroke-width="1.1"/>
<line x1="95.0000" y1="298.2000" x2="870.0000" y2="298.2000" stroke="#dddddd" stroke-width="1.1"/>
<line x1="482.5000" y1="48.0000" x2="482.5000" y2="604.0000" stroke="#b8b8b8" stroke-width="1.5"/>
<line x1="95.0000" y1="326.0000" x2="870.0000" y2="326.0000" stroke="#b8b8b8" stroke-width="1.5"/>
<text x="482.5000" y="627.0000" text-anchor="middle" font-family="sans-serif" font-size="11">0.00</text>
<text x="86.00" y="330.00" text-anchor="end" font-family="sans-serif" font-size="11">1.5767</text>
<line x1="521.2500" y1="48.0000" x2="521.2500" y2="604.0000" stroke="#dddddd" stroke-width="1.1"/>
<line x1="95.0000" y1="353.8000" x2="870.0000" y2="353.8000" stroke="#dddddd" stroke-width="1.1"/>
<line x1="560.0000" y1="48.0000" x2="560.0000" y2="604.0000" stroke="#b8b8b8" stroke-width="1.5"/>
<line x1="95.0000" y1="381.6000" x2="870.0000" y2="381.6000" stroke="#b8b8b8" stroke-width="1.5"/>
<text x="560.0000" y="627.0000" text-anchor="middle" font-family="sans-serif" font-size="11">1.00</text>
<text x="86.00" y="385.60" text-anchor="end" font-family="sans-serif" font-size="11">1.5610</text>
<line x1="598.7500" y1="48.0000" x2="598.7500" y2="604.0000" stroke="#dddddd" stroke-width="1.1"/>
<line x1="95.0000" y1="409.4000" x2="870.0000" y2="409.4000" stroke="#dddddd" stroke-width="1.1"/>
<line x1="637.5000" y1="48.0000" x2="637.5000" y2="604.0000" stroke="#b8b8b8" stroke-width="1.5"/>
<line x1="95.0000" y1="437.2000" x2="870.0000" y2="437.2000" stroke="#b8b8b8" stroke-width="1.5"/>
<text x="637.5000" y="627.0000" text-anchor="middle" font-family="sans-serif" font-size="11">2.00</text>
<text x="86.00" y="441.20" text-anchor="end" font-family="sans-serif" font-size="11">1.5453</text>
<line x1="676.2500" y1="48.0000" x2="676.2500" y2="604.0000" stroke="#dddddd" stroke-width="1.1"/>
<line x1="95.0000" y1="465.0000" x2="870.0000" y2="465.0000" stroke="#dddddd" stroke-width="1.1"/>
<line x1="715.0000" y1="48.0000" x2="715.0000" y2="604.0000" stroke="#b8b8b8" stroke-width="1.5"/>
<line x1="95.0000" y1="492.8000" x2="870.0000" y2="492.8000" stroke="#b8b8b8" stroke-width="1.5"/>
<text x="715.0000" y="627.0000" text-anchor="middle" font-family="sans-serif" font-size="11">3.00</text>
<text x="86.00" y="496.80" text-anchor="end" font-family="sans-serif" font-size="11">1.5296</text>
<line x1="753.7500" y1="48.0000" x2="753.7500" y2="604.0000" stroke="#dddddd" stroke-width="1.1"/>
<line x1="95.0000" y1="520.6000" x2="870.0000" y2="520.6000" stroke="#dddddd" stroke-width="1.1"/>
<line x1="792.5000" y1="48.0000" x2="792.5000" y2="604.0000" stroke="#b8b8b8" stroke-width="1.5"/>
<line x1="95.0000" y1="548.4000" x2="870.0000" y2="548.4000" stroke="#b8b8b8" stroke-width="1.5"/>
<text x="792.5000" y="627.0000" text-anchor="middle" font-family="sans-serif" font-size="11">4.00</text>
<text x="86.00" y="552.40" text-anchor="end" font-family="sans-serif" font-size="11">1.5139</text>
<line x1="831.2500" y1="48.0000" x2="831.2500" y2="604.0000" stroke="#dddddd" stroke-width="1.1"/>
<line x1="95.0000" y1="576.2000" x2="870.0000" y2="576.2000" stroke="#dddddd" stroke-width="1.1"/>
<line x1="870.0000" y1="48.0000" x2="870.0000" y2="604.0000" stroke="#b8b8b8" stroke-width="1.5"/>
<line x1="95.0000" y1="604.0000" x2="870.0000" y2="604.0000" stroke="#b8b8b8" stroke-width="1.5"/>
<text x="870.0000" y="627.0000" text-anchor="middle" font-family="sans-serif" font-size="11">5.00</text>
<text x="86.00" y="608.00" text-anchor="end" font-family="sans-serif" font-size="11">1.4981</text>
<rect x="95" y="48" width="775" height="556" fill="none" stroke="#222" stroke-width="1.5"/>
<line x1="482.5" y1="48" x2="482.5" y2="604" stroke="#555" stroke-width="1.8"/>
<path d="M 95 557.667 L 114.375 553.517 L 133.75 540.963 L 153.125 554 L 172.5 525.508 L 191.875 526.573 L 211.25 509.697 L 230.625 502.78 L 250 457.682 L 269.375 439.221 L 288.75 419.518 L 308.125 402.871 L 327.5 381.183 L 346.875 346.905 L 366.25 346.352 L 385.625 313.093 L 405 319.221 L 424.375 308.005 L 443.75 293.169 L 463.125 277.875 L 482.5 339.025 L 501.875 211.151 L 521.25 192.639 L 540.625 166.02 L 560 141.021 L 579.375 126.866 L 598.75 108.794 L 618.125 103.738 L 637.5 105.077 L 656.875 105.782 L 676.25 94.3333 L 695.625 108.732 L 715 119.511 L 734.375 141.211 L 753.75 124.297 L 773.125 133.476 L 792.5 119.848 L 811.875 116.951 L 831.25 145.129 L 850.625 173.509 L 870 213.448" fill="none" stroke="#1f77b4" stroke-width="2.6"/>
<circle cx="95" cy="557.666666667" r="2.5" fill="#1f77b4"/>
<circle cx="114.375" cy="553.516895082" r="2.5" fill="#1f77b4"/>
<circle cx="133.75" cy="540.962849453" r="2.5" fill="#1f77b4"/>
<circle cx="153.125" cy="553.999971934" r="2.5" fill="#1f77b4"/>
<circle cx="172.5" cy="525.508391887" r="2.5" fill="#1f77b4"/>
<circle cx="191.875" cy="526.573229169" r="2.5" fill="#1f77b4"/>
<circle cx="211.25" cy="509.697243723" r="2.5" fill="#1f77b4"/>
<circle cx="230.625" cy="502.779734384" r="2.5" fill="#1f77b4"/>
<circle cx="250" cy="457.681579183" r="2.5" fill="#1f77b4"/>
<circle cx="269.375" cy="439.22080233" r="2.5" fill="#1f77b4"/>
<circle cx="288.75" cy="419.517929706" r="2.5" fill="#1f77b4"/>
<circle cx="308.125" cy="402.870529292" r="2.5" fill="#1f77b4"/>
<circle cx="327.5" cy="381.183062091" r="2.5" fill="#1f77b4"/>
<circle cx="346.875" cy="346.90513936" r="2.5" fill="#1f77b4"/>
<circle cx="366.25" cy="346.351604625" r="2.5" fill="#1f77b4"/>
<circle cx="385.625" cy="313.093448091" r="2.5" fill="#1f77b4"/>
<circle cx="405" cy="319.221435779" r="2.5" fill="#1f77b4"/>
<circle cx="424.375" cy="308.004765098" r="2.5" fill="#1f77b4"/>
<circle cx="443.75" cy="293.169051113" r="2.5" fill="#1f77b4"/>
<circle cx="463.125" cy="277.874825874" r="2.5" fill="#1f77b4"/>
<circle cx="482.5" cy="339.024808922" r="2.5" fill="#1f77b4"/>
<circle cx="501.875" cy="211.150984458" r="2.5" fill="#1f77b4"/>
<circle cx="521.25" cy="192.638763208" r="2.5" fill="#1f77b4"/>
<circle cx="540.625" cy="166.020263817" r="2.5" fill="#1f77b4"/>
<circle cx="560" cy="141.020548941" r="2.5" fill="#1f77b4"/>
<circle cx="579.375" cy="126.8657922" r="2.5" fill="#1f77b4"/>
<circle cx="598.75" cy="108.794067386" r="2.5" fill="#1f77b4"/>
<circle cx="618.125" cy="103.738244995" r="2.5" fill="#1f77b4"/>
<circle cx="637.5" cy="105.077316949" r="2.5" fill="#1f77b4"/>
<circle cx="656.875" cy="105.781686885" r="2.5" fill="#1f77b4"/>
<circle cx="676.25" cy="94.3333333333" r="2.5" fill="#1f77b4"/>
<circle cx="695.625" cy="108.731781515" r="2.5" fill="#1f77b4"/>
<circle cx="715" cy="119.510613282" r="2.5" fill="#1f77b4"/>
<circle cx="734.375" cy="141.210593342" r="2.5" fill="#1f77b4"/>
<circle cx="753.75" cy="124.297432132" r="2.5" fill="#1f77b4"/>
<circle cx="773.125" cy="133.475717813" r="2.5" fill="#1f77b4"/>
<circle cx="792.5" cy="119.848428956" r="2.5" fill="#1f77b4"/>
<circle cx="811.875" cy="116.950719365" r="2.5" fill="#1f77b4"/>
<circle cx="831.25" cy="145.129481445" r="2.5" fill="#1f77b4"/>
<circle cx="850.625" cy="173.508994417" r="2.5" fill="#1f77b4"/>
<circle cx="870" cy="213.447947064" r="2.5" fill="#1f77b4"/>
<line x1="895" y1="68" x2="935" y2="68" stroke="#1f77b4" stroke-width="2.6"/>
<text x="945" y="72" font-family="sans-serif" font-size="12">W2</text>
<text x="482.5" y="660" text-anchor="middle" font-family="sans-serif" font-size="14">Count</text>
<text x="22" y="326" transform="rotate(-90 22 326)" text-anchor="middle" font-family="sans-serif" font-size="14">E[X^2 | count], unit initial wager</text>
</svg>
