<svg xmlns="http://www.w3.org/2000/svg" width="1200" height="720" viewBox="0 0 1200 720">
<rect width="100%" height="100%" fill="white"/>
<text x="105" y="30" font-family="sans-serif" font-size="20">W2 Kelly growth</text>
<line x1="105" y1="48" x2="105" y2="642" stroke="#c8c8c8" stroke-width="1"/>
<line x1="105" y1="48" x2="900" y2="48" stroke="#c8c8c8" stroke-width="1"/>
<text x="105" y="666" text-anchor="middle" font-family="sans-serif" font-size="12">0.75</text>
<text x="95.00" y="52.00" text-anchor="end" font-family="sans-serif" font-size="12">1.000262654</text>
<line x1="184.500000000" y1="48.000000000" x2="184.500000000" y2="642.000000000" stroke="#c8c8c8" stroke-width="1"/>
<line x1="105.000000000" y1="107.400000000" x2="900.000000000" y2="107.400000000" stroke="#c8c8c8" stroke-width="1"/>
<line x1="264.000000000" y1="48.000000000" x2="264.000000000" y2="642.000000000" stroke="#c8c8c8" stroke-width="1"/>
<line x1="105.000000000" y1="166.800000000" x2="900.000000000" y2="166.800000000" stroke="#c8c8c8" stroke-width="1"/>
<text x="264.000000000" y="666.000000000" text-anchor="middle" font-family="sans-serif" font-size="12">0.85</text>
<text x="95.00" y="170.80" text-anchor="end" font-family="sans-serif" font-size="12">1.000243945</text>
<line x1="343.500000000" y1="48.000000000" x2="343.500000000" y2="642.000000000" stroke="#c8c8c8" stroke-width="1"/>
<line x1="105.000000000" y1="226.200000000" x2="900.000000000" y2="226.200000000" stroke="#c8c8c8" stroke-width="1"/>
<line x1="423.000000000" y1="48.000000000" x2="423.000000000" y2="642.000000000" stroke="#c8c8c8" stroke-width="1"/>
<line x1="105.000000000" y1="285.600000000" x2="900.000000000" y2="285.600000000" stroke="#c8c8c8" stroke-width="1"/>
<text x="423.000000000" y="666.000000000" text-anchor="middle" font-family="sans-serif" font-size="12">0.95</text>
<text x="95.00" y="289.60" text-anchor="end" font-family="sans-serif" font-size="12">1.000225237</text>
<line x1="502.500000000" y1="48.000000000" x2="502.500000000" y2="642.000000000" stroke="#c8c8c8" stroke-width="1"/>
<line x1="105.000000000" y1="345.000000000" x2="900.000000000" y2="345.000000000" stroke="#c8c8c8" stroke-width="1"/>
<line x1="582.000000000" y1="48.000000000" x2="582.000000000" y2="642.000000000" stroke="#c8c8c8" stroke-width="1"/>
<line x1="105.000000000" y1="404.400000000" x2="900.000000000" y2="404.400000000" stroke="#c8c8c8" stroke-width="1"/>
<text x="582.000000000" y="666.000000000" text-anchor="middle" font-family="sans-serif" font-size="12">1.05</text>
<text x="95.00" y="408.40" text-anchor="end" font-family="sans-serif" font-size="12">1.000206529</text>
<line x1="661.500000000" y1="48.000000000" x2="661.500000000" y2="642.000000000" stroke="#c8c8c8" stroke-width="1"/>
<line x1="105.000000000" y1="463.800000000" x2="900.000000000" y2="463.800000000" stroke="#c8c8c8" stroke-width="1"/>
<line x1="741.000000000" y1="48.000000000" x2="741.000000000" y2="642.000000000" stroke="#c8c8c8" stroke-width="1"/>
<line x1="105.000000000" y1="523.200000000" x2="900.000000000" y2="523.200000000" stroke="#c8c8c8" stroke-width="1"/>
<text x="741.000000000" y="666.000000000" text-anchor="middle" font-family="sans-serif" font-size="12">1.15</text>
<text x="95.00" y="527.20" text-anchor="end" font-family="sans-serif" font-size="12">1.000187820</text>
<line x1="820.500000000" y1="48.000000000" x2="820.500000000" y2="642.000000000" stroke="#c8c8c8" stroke-width="1"/>
<line x1="105.000000000" y1="582.600000000" x2="900.000000000" y2="582.600000000" stroke="#c8c8c8" stroke-width="1"/>
<line x1="900.000000000" y1="48.000000000" x2="900.000000000" y2="642.000000000" stroke="#c8c8c8" stroke-width="1"/>
<line x1="105.000000000" y1="642.000000000" x2="900.000000000" y2="642.000000000" stroke="#c8c8c8" stroke-width="1"/>
<text x="900.000000000" y="666.000000000" text-anchor="middle" font-family="sans-serif" font-size="12">1.25</text>
<text x="95.00" y="646.00" text-anchor="end" font-family="sans-serif" font-size="12">1.000169112</text>
<rect x="105" y="48" width="795" height="594" fill="none" stroke="#222" stroke-width="1.5"/>
<path d="M 105 491.465 L 184.5 452.555 L 264 406.948 L 343.5 379.427 L 423 340.869 L 502.5 314.414 L 582 295.714 L 661.5 279.581 L 741 270.968 L 820.5 260.103 L 900 249.206" fill="none" stroke="#1f77b4" stroke-width="3"/>
<line x1="105" y1="409.468002263" x2="105" y2="573.461538461" stroke="#1f77b4" stroke-width="2" opacity="0.85"/>
<line x1="100" y1="409.468002263" x2="110" y2="409.468002263" stroke="#1f77b4" stroke-width="2" opacity="0.85"/>
<line x1="100" y1="573.461538461" x2="110" y2="573.461538461" stroke="#1f77b4" stroke-width="2" opacity="0.85"/>
<circle cx="105" cy="491.464770362" r="4" fill="#1f77b4"/>
<line x1="184.5" y1="367.290917964" x2="184.5" y2="537.820016215" stroke="#1f77b4" stroke-width="2" opacity="0.85"/>
<line x1="179.5" y1="367.290917964" x2="189.5" y2="367.290917964" stroke="#1f77b4" stroke-width="2" opacity="0.85"/>
<line x1="179.5" y1="537.820016215" x2="189.5" y2="537.820016215" stroke="#1f77b4" stroke-width="2" opacity="0.85"/>
<circle cx="184.5" cy="452.555467089" r="4" fill="#1f77b4"/>
<line x1="264" y1="313.077884327" x2="264" y2="500.817863684" stroke="#1f77b4" stroke-width="2" opacity="0.85"/>
<line x1="259" y1="313.077884327" x2="269" y2="313.077884327" stroke="#1f77b4" stroke-width="2" opacity="0.85"/>
<line x1="259" y1="500.817863684" x2="269" y2="500.817863684" stroke="#1f77b4" stroke-width="2" opacity="0.85"/>
<circle cx="264" cy="406.947874005" r="4" fill="#1f77b4"/>
<line x1="343.5" y1="285.93246892" x2="343.5" y2="472.922168671" stroke="#1f77b4" stroke-width="2" opacity="0.85"/>
<line x1="338.5" y1="285.93246892" x2="348.5" y2="285.93246892" stroke="#1f77b4" stroke-width="2" opacity="0.85"/>
<line x1="338.5" y1="472.922168671" x2="348.5" y2="472.922168671" stroke="#1f77b4" stroke-width="2" opacity="0.85"/>
<circle cx="343.5" cy="379.427318796" r="4" fill="#1f77b4"/>
<line x1="423" y1="236.783068542" x2="423" y2="444.955580687" stroke="#1f77b4" stroke-width="2" opacity="0.85"/>
<line x1="418" y1="236.783068542" x2="428" y2="236.783068542" stroke="#1f77b4" stroke-width="2" opacity="0.85"/>
<line x1="418" y1="444.955580687" x2="428" y2="444.955580687" stroke="#1f77b4" stroke-width="2" opacity="0.85"/>
<circle cx="423" cy="340.869324614" r="4" fill="#1f77b4"/>
<line x1="502.5" y1="208.049420495" x2="502.5" y2="420.778057632" stroke="#1f77b4" stroke-width="2" opacity="0.85"/>
<line x1="497.5" y1="208.049420495" x2="507.5" y2="208.049420495" stroke="#1f77b4" stroke-width="2" opacity="0.85"/>
<line x1="497.5" y1="420.778057632" x2="507.5" y2="420.778057632" stroke="#1f77b4" stroke-width="2" opacity="0.85"/>
<circle cx="502.5" cy="314.413739063" r="4" fill="#1f77b4"/>
<line x1="582" y1="183.423392087" x2="582" y2="408.004386115" stroke="#1f77b4" stroke-width="2" opacity="0.85"/>
<line x1="577" y1="183.423392087" x2="587" y2="183.423392087" stroke="#1f77b4" stroke-width="2" opacity="0.85"/>
<line x1="577" y1="408.004386115" x2="587" y2="408.004386115" stroke="#1f77b4" stroke-width="2" opacity="0.85"/>
<circle cx="582" cy="295.713889101" r="4" fill="#1f77b4"/>
<line x1="661.5" y1="159.769854504" x2="661.5" y2="399.391905274" stroke="#1f77b4" stroke-width="2" opacity="0.85"/>
<line x1="656.5" y1="159.769854504" x2="666.5" y2="159.769854504" stroke="#1f77b4" stroke-width="2" opacity="0.85"/>
<line x1="656.5" y1="399.391905274" x2="666.5" y2="399.391905274" stroke="#1f77b4" stroke-width="2" opacity="0.85"/>
<circle cx="661.5" cy="279.580879889" r="4" fill="#1f77b4"/>
<line x1="741" y1="144.667430921" x2="741" y2="397.267927743" stroke="#1f77b4" stroke-width="2" opacity="0.85"/>
<line x1="736" y1="144.667430921" x2="746" y2="144.667430921" stroke="#1f77b4" stroke-width="2" opacity="0.85"/>
<line x1="736" y1="397.267927743" x2="746" y2="397.267927743" stroke="#1f77b4" stroke-width="2" opacity="0.85"/>
<circle cx="741" cy="270.967679332" r="4" fill="#1f77b4"/>
<line x1="820.5" y1="130.75876617" x2="820.5" y2="389.447419613" stroke="#1f77b4" stroke-width="2" opacity="0.85"/>
<line x1="815.5" y1="130.75876617" x2="825.5" y2="130.75876617" stroke="#1f77b4" stroke-width="2" opacity="0.85"/>
<line x1="815.5" y1="389.447419613" x2="825.5" y2="389.447419613" stroke="#1f77b4" stroke-width="2" opacity="0.85"/>
<circle cx="820.5" cy="260.103092892" r="4" fill="#1f77b4"/>
<line x1="900" y1="116.538461539" x2="900" y2="381.873245058" stroke="#1f77b4" stroke-width="2" opacity="0.85"/>
<line x1="895" y1="116.538461539" x2="905" y2="116.538461539" stroke="#1f77b4" stroke-width="2" opacity="0.85"/>
<line x1="895" y1="381.873245058" x2="905" y2="381.873245058" stroke="#1f77b4" stroke-width="2" opacity="0.85"/>
<circle cx="900" cy="249.205853298" r="4" fill="#1f77b4"/>
<line x1="502.5" y1="48" x2="502.5" y2="642" stroke="#1f77b4" stroke-width="1.5" stroke-dasharray="7,5" opacity="0.8"/>
<line x1="930" y1="70" x2="972" y2="70" stroke="#1f77b4" stroke-width="3"/>
<text x="982" y="74" font-family="sans-serif" font-size="12">W2</text>
<text x="982" y="90" font-family="sans-serif" font-size="11" fill="#555">1/E[X^2]=1.0000</text>
<text x="930" y="685" font-family="sans-serif" font-size="11" fill="#555">Error bars: mean +/- sample stddev</text>
<text x="502.5" y="698" text-anchor="middle" font-family="sans-serif" font-size="14">Kelly multiplier</text>
<text x="24" y="345" transform="rotate(-90 24 345)" text-anchor="middle" font-family="sans-serif" font-size="14">Expected growth per round</text>
</svg>
