<svg xmlns="http://www.w3.org/2000/svg" width="1200" height="720" viewBox="0 0 1200 720">
<rect width="100%" height="100%" fill="white"/>
<text x="105" y="30" font-family="sans-serif" font-size="20">W1..W2 Kelly growth</text>
<line x1="105" y1="48" x2="105" y2="642" stroke="#c8c8c8" stroke-width="1"/>
<line x1="105" y1="48" x2="900" y2="48" stroke="#c8c8c8" stroke-width="1"/>
<text x="105" y="666" text-anchor="middle" font-family="sans-serif" font-size="12">0.75</text>
<text x="95.00" y="52.00" text-anchor="end" font-family="sans-serif" font-size="12">1.000027765</text>
<line x1="184.500000000" y1="48.000000000" x2="184.500000000" y2="642.000000000" stroke="#c8c8c8" stroke-width="1"/>
<line x1="105.000000000" y1="107.400000000" x2="900.000000000" y2="107.400000000" stroke="#c8c8c8" stroke-width="1"/>
<line x1="264.000000000" y1="48.000000000" x2="264.000000000" y2="642.000000000" stroke="#c8c8c8" stroke-width="1"/>
<line x1="105.000000000" y1="166.800000000" x2="900.000000000" y2="166.800000000" stroke="#c8c8c8" stroke-width="1"/>
<text x="264.000000000" y="666.000000000" text-anchor="middle" font-family="sans-serif" font-size="12">0.85</text>
<text x="95.00" y="170.80" text-anchor="end" font-family="sans-serif" font-size="12">1.000022376</text>
<line x1="343.500000000" y1="48.000000000" x2="343.500000000" y2="642.000000000" stroke="#c8c8c8" stroke-width="1"/>
<line x1="105.000000000" y1="226.200000000" x2="900.000000000" y2="226.200000000" stroke="#c8c8c8" stroke-width="1"/>
<line x1="423.000000000" y1="48.000000000" x2="423.000000000" y2="642.000000000" stroke="#c8c8c8" stroke-width="1"/>
<line x1="105.000000000" y1="285.600000000" x2="900.000000000" y2="285.600000000" stroke="#c8c8c8" stroke-width="1"/>
<text x="423.000000000" y="666.000000000" text-anchor="middle" font-family="sans-serif" font-size="12">0.95</text>
<text x="95.00" y="289.60" text-anchor="end" font-family="sans-serif" font-size="12">1.000016987</text>
<line x1="502.500000000" y1="48.000000000" x2="502.500000000" y2="642.000000000" stroke="#c8c8c8" stroke-width="1"/>
<line x1="105.000000000" y1="345.000000000" x2="900.000000000" y2="345.000000000" stroke="#c8c8c8" stroke-width="1"/>
<line x1="582.000000000" y1="48.000000000" x2="582.000000000" y2="642.000000000" stroke="#c8c8c8" stroke-width="1"/>
<line x1="105.000000000" y1="404.400000000" x2="900.000000000" y2="404.400000000" stroke="#c8c8c8" stroke-width="1"/>
<text x="582.000000000" y="666.000000000" text-anchor="middle" font-family="sans-serif" font-size="12">1.05</text>
<text x="95.00" y="408.40" text-anchor="end" font-family="sans-serif" font-size="12">1.000011598</text>
<line x1="661.500000000" y1="48.000000000" x2="661.500000000" y2="642.000000000" stroke="#c8c8c8" stroke-width="1"/>
<line x1="105.000000000" y1="463.800000000" x2="900.000000000" y2="463.800000000" stroke="#c8c8c8" stroke-width="1"/>
<line x1="741.000000000" y1="48.000000000" x2="741.000000000" y2="642.000000000" stroke="#c8c8c8" stroke-width="1"/>
<line x1="105.000000000" y1="523.200000000" x2="900.000000000" y2="523.200000000" stroke="#c8c8c8" stroke-width="1"/>
<text x="741.000000000" y="666.000000000" text-anchor="middle" font-family="sans-serif" font-size="12">1.15</text>
<text x="95.00" y="527.20" text-anchor="end" font-family="sans-serif" font-size="12">1.000006209</text>
<line x1="820.500000000" y1="48.000000000" x2="820.500000000" y2="642.000000000" stroke="#c8c8c8" stroke-width="1"/>
<line x1="105.000000000" y1="582.600000000" x2="900.000000000" y2="582.600000000" stroke="#c8c8c8" stroke-width="1"/>
<line x1="900.000000000" y1="48.000000000" x2="900.000000000" y2="642.000000000" stroke="#c8c8c8" stroke-width="1"/>
<line x1="105.000000000" y1="642.000000000" x2="900.000000000" y2="642.000000000" stroke="#c8c8c8" stroke-width="1"/>
<text x="900.000000000" y="666.000000000" text-anchor="middle" font-family="sans-serif" font-size="12">1.25</text>
<text x="95.00" y="646.00" text-anchor="end" font-family="sans-serif" font-size="12">1.000000820</text>
<rect x="105" y="48" width="795" height="594" fill="none" stroke="#222" stroke-width="1.5"/>
<path d="M 105 407.54 L 184.5 405.496 L 264 402.92 L 343.5 398.439 L 423 403.727 L 502.5 404.174 L 582 402.345 L 661.5 409.714 L 741 416.557 L 820.5 430.868 L 900 432.422" fill="none" stroke="#1f77b4" stroke-width="3"/>
<line x1="105" y1="320.366980903" x2="105" y2="494.713909276" stroke="#1f77b4" stroke-width="2" opacity="0.85"/>
<line x1="100" y1="320.366980903" x2="110" y2="320.366980903" stroke="#1f77b4" stroke-width="2" opacity="0.85"/>
<line x1="100" y1="494.713909276" x2="110" y2="494.713909276" stroke="#1f77b4" stroke-width="2" opacity="0.85"/>
<circle cx="105" cy="407.54044509" r="4" fill="#1f77b4"/>
<line x1="184.5" y1="313.791328889" x2="184.5" y2="497.199740409" stroke="#1f77b4" stroke-width="2" opacity="0.85"/>
<line x1="179.5" y1="313.791328889" x2="189.5" y2="313.791328889" stroke="#1f77b4" stroke-width="2" opacity="0.85"/>
<line x1="179.5" y1="497.199740409" x2="189.5" y2="497.199740409" stroke="#1f77b4" stroke-width="2" opacity="0.85"/>
<circle cx="184.5" cy="405.495534649" r="4" fill="#1f77b4"/>
<line x1="264" y1="305.502427686" x2="264" y2="500.337405797" stroke="#1f77b4" stroke-width="2" opacity="0.85"/>
<line x1="259" y1="305.502427686" x2="269" y2="305.502427686" stroke="#1f77b4" stroke-width="2" opacity="0.85"/>
<line x1="259" y1="500.337405797" x2="269" y2="500.337405797" stroke="#1f77b4" stroke-width="2" opacity="0.85"/>
<circle cx="264" cy="402.919916742" r="4" fill="#1f77b4"/>
<line x1="343.5" y1="293.305401495" x2="343.5" y2="503.573413207" stroke="#1f77b4" stroke-width="2" opacity="0.85"/>
<line x1="338.5" y1="293.305401495" x2="348.5" y2="293.305401495" stroke="#1f77b4" stroke-width="2" opacity="0.85"/>
<line x1="338.5" y1="503.573413207" x2="348.5" y2="503.573413207" stroke="#1f77b4" stroke-width="2" opacity="0.85"/>
<circle cx="343.5" cy="398.439407351" r="4" fill="#1f77b4"/>
<line x1="423" y1="293.575252973" x2="423" y2="513.879077576" stroke="#1f77b4" stroke-width="2" opacity="0.85"/>
<line x1="418" y1="293.575252973" x2="428" y2="293.575252973" stroke="#1f77b4" stroke-width="2" opacity="0.85"/>
<line x1="418" y1="513.879077576" x2="428" y2="513.879077576" stroke="#1f77b4" stroke-width="2" opacity="0.85"/>
<circle cx="423" cy="403.727165274" r="4" fill="#1f77b4"/>
<line x1="502.5" y1="288.680430001" x2="502.5" y2="519.667653704" stroke="#1f77b4" stroke-width="2" opacity="0.85"/>
<line x1="497.5" y1="288.680430001" x2="507.5" y2="288.680430001" stroke="#1f77b4" stroke-width="2" opacity="0.85"/>
<line x1="497.5" y1="519.667653704" x2="507.5" y2="519.667653704" stroke="#1f77b4" stroke-width="2" opacity="0.85"/>
<circle cx="502.5" cy="404.174041853" r="4" fill="#1f77b4"/>
<line x1="582" y1="284.501728029" x2="582" y2="520.188590243" stroke="#1f77b4" stroke-width="2" opacity="0.85"/>
<line x1="577" y1="284.501728029" x2="587" y2="284.501728029" stroke="#1f77b4" stroke-width="2" opacity="0.85"/>
<line x1="577" y1="520.188590243" x2="587" y2="520.188590243" stroke="#1f77b4" stroke-width="2" opacity="0.85"/>
<circle cx="582" cy="402.345159136" r="4" fill="#1f77b4"/>
<line x1="661.5" y1="281.071604786" x2="661.5" y2="538.355631771" stroke="#1f77b4" stroke-width="2" opacity="0.85"/>
<line x1="656.5" y1="281.071604786" x2="666.5" y2="281.071604786" stroke="#1f77b4" stroke-width="2" opacity="0.85"/>
<line x1="656.5" y1="538.355631771" x2="666.5" y2="538.355631771" stroke="#1f77b4" stroke-width="2" opacity="0.85"/>
<circle cx="661.5" cy="409.713618279" r="4" fill="#1f77b4"/>
<line x1="741" y1="280.767856477" x2="741" y2="552.34640092" stroke="#1f77b4" stroke-width="2" opacity="0.85"/>
<line x1="736" y1="280.767856477" x2="746" y2="280.767856477" stroke="#1f77b4" stroke-width="2" opacity="0.85"/>
<line x1="736" y1="552.34640092" x2="746" y2="552.34640092" stroke="#1f77b4" stroke-width="2" opacity="0.85"/>
<circle cx="741" cy="416.557128699" r="4" fill="#1f77b4"/>
<line x1="820.5" y1="288.2750508" x2="820.5" y2="573.461538463" stroke="#1f77b4" stroke-width="2" opacity="0.85"/>
<line x1="815.5" y1="288.2750508" x2="825.5" y2="288.2750508" stroke="#1f77b4" stroke-width="2" opacity="0.85"/>
<line x1="815.5" y1="573.461538463" x2="825.5" y2="573.461538463" stroke="#1f77b4" stroke-width="2" opacity="0.85"/>
<circle cx="820.5" cy="430.868294631" r="4" fill="#1f77b4"/>
<line x1="900" y1="291.578657002" x2="900" y2="573.266164948" stroke="#1f77b4" stroke-width="2" opacity="0.85"/>
<line x1="895" y1="291.578657002" x2="905" y2="291.578657002" stroke="#1f77b4" stroke-width="2" opacity="0.85"/>
<line x1="895" y1="573.266164948" x2="905" y2="573.266164948" stroke="#1f77b4" stroke-width="2" opacity="0.85"/>
<circle cx="900" cy="432.422410975" r="4" fill="#1f77b4"/>
<line x1="502.5" y1="48" x2="502.5" y2="642" stroke="#1f77b4" stroke-width="1.5" stroke-dasharray="7,5" opacity="0.8"/>
<line x1="930" y1="70" x2="972" y2="70" stroke="#1f77b4" stroke-width="3"/>
<text x="982" y="74" font-family="sans-serif" font-size="12">W1</text>
<text x="982" y="90" font-family="sans-serif" font-size="11" fill="#555">1/E[X^2]=1.0000</text>
<path d="M 105 287.044 L 184.5 285.842 L 264 282.921 L 343.5 276.544 L 423 266.379 L 502.5 274.894 L 582 272.826 L 661.5 275.758 L 741 276.082 L 820.5 281.134 L 900 292.912" fill="none" stroke="#d62728" stroke-width="3"/>
<line x1="105" y1="187.250775503" x2="105" y2="386.836957862" stroke="#d62728" stroke-width="2" opacity="0.85"/>
<line x1="100" y1="187.250775503" x2="110" y2="187.250775503" stroke="#d62728" stroke-width="2" opacity="0.85"/>
<line x1="100" y1="386.836957862" x2="110" y2="386.836957862" stroke="#d62728" stroke-width="2" opacity="0.85"/>
<circle cx="105" cy="287.043866683" r="4" fill="#d62728"/>
<line x1="184.5" y1="178.962098907" x2="184.5" y2="392.721443674" stroke="#d62728" stroke-width="2" opacity="0.85"/>
<line x1="179.5" y1="178.962098907" x2="189.5" y2="178.962098907" stroke="#d62728" stroke-width="2" opacity="0.85"/>
<line x1="179.5" y1="392.721443674" x2="189.5" y2="392.721443674" stroke="#d62728" stroke-width="2" opacity="0.85"/>
<circle cx="184.5" cy="285.84177129" r="4" fill="#d62728"/>
<line x1="264" y1="168.405683219" x2="264" y2="397.437091005" stroke="#d62728" stroke-width="2" opacity="0.85"/>
<line x1="259" y1="168.405683219" x2="269" y2="168.405683219" stroke="#d62728" stroke-width="2" opacity="0.85"/>
<line x1="259" y1="397.437091005" x2="269" y2="397.437091005" stroke="#d62728" stroke-width="2" opacity="0.85"/>
<circle cx="264" cy="282.921387112" r="4" fill="#d62728"/>
<line x1="343.5" y1="155.383291149" x2="343.5" y2="397.705315499" stroke="#d62728" stroke-width="2" opacity="0.85"/>
<line x1="338.5" y1="155.383291149" x2="348.5" y2="155.383291149" stroke="#d62728" stroke-width="2" opacity="0.85"/>
<line x1="338.5" y1="397.705315499" x2="348.5" y2="397.705315499" stroke="#d62728" stroke-width="2" opacity="0.85"/>
<circle cx="343.5" cy="276.544303324" r="4" fill="#d62728"/>
<line x1="423" y1="140.484514546" x2="423" y2="392.273538308" stroke="#d62728" stroke-width="2" opacity="0.85"/>
<line x1="418" y1="140.484514546" x2="428" y2="140.484514546" stroke="#d62728" stroke-width="2" opacity="0.85"/>
<line x1="418" y1="392.273538308" x2="428" y2="392.273538308" stroke="#d62728" stroke-width="2" opacity="0.85"/>
<circle cx="423" cy="266.379026427" r="4" fill="#d62728"/>
<line x1="502.5" y1="141.199247563" x2="502.5" y2="408.587854071" stroke="#d62728" stroke-width="2" opacity="0.85"/>
<line x1="497.5" y1="141.199247563" x2="507.5" y2="141.199247563" stroke="#d62728" stroke-width="2" opacity="0.85"/>
<line x1="497.5" y1="408.587854071" x2="507.5" y2="408.587854071" stroke="#d62728" stroke-width="2" opacity="0.85"/>
<circle cx="502.5" cy="274.893550817" r="4" fill="#d62728"/>
<line x1="582" y1="129.930739302" x2="582" y2="415.722028554" stroke="#d62728" stroke-width="2" opacity="0.85"/>
<line x1="577" y1="129.930739302" x2="587" y2="129.930739302" stroke="#d62728" stroke-width="2" opacity="0.85"/>
<line x1="577" y1="415.722028554" x2="587" y2="415.722028554" stroke="#d62728" stroke-width="2" opacity="0.85"/>
<circle cx="582" cy="272.826383928" r="4" fill="#d62728"/>
<line x1="661.5" y1="134.043786472" x2="661.5" y2="417.471353911" stroke="#d62728" stroke-width="2" opacity="0.85"/>
<line x1="656.5" y1="134.043786472" x2="666.5" y2="134.043786472" stroke="#d62728" stroke-width="2" opacity="0.85"/>
<line x1="656.5" y1="417.471353911" x2="666.5" y2="417.471353911" stroke="#d62728" stroke-width="2" opacity="0.85"/>
<circle cx="661.5" cy="275.757570192" r="4" fill="#d62728"/>
<line x1="741" y1="123.138720871" x2="741" y2="429.0243876" stroke="#d62728" stroke-width="2" opacity="0.85"/>
<line x1="736" y1="123.138720871" x2="746" y2="123.138720871" stroke="#d62728" stroke-width="2" opacity="0.85"/>
<line x1="736" y1="429.0243876" x2="746" y2="429.0243876" stroke="#d62728" stroke-width="2" opacity="0.85"/>
<circle cx="741" cy="276.081554235" r="4" fill="#d62728"/>
<line x1="820.5" y1="116.538461537" x2="820.5" y2="445.729116955" stroke="#d62728" stroke-width="2" opacity="0.85"/>
<line x1="815.5" y1="116.538461537" x2="825.5" y2="116.538461537" stroke="#d62728" stroke-width="2" opacity="0.85"/>
<line x1="815.5" y1="445.729116955" x2="825.5" y2="445.729116955" stroke="#d62728" stroke-width="2" opacity="0.85"/>
<circle cx="820.5" cy="281.133789246" r="4" fill="#d62728"/>
<line x1="900" y1="125.549567482" x2="900" y2="460.274486657" stroke="#d62728" stroke-width="2" opacity="0.85"/>
<line x1="895" y1="125.549567482" x2="905" y2="125.549567482" stroke="#d62728" stroke-width="2" opacity="0.85"/>
<line x1="895" y1="460.274486657" x2="905" y2="460.274486657" stroke="#d62728" stroke-width="2" opacity="0.85"/>
<circle cx="900" cy="292.91202707" r="4" fill="#d62728"/>
<line x1="502.5" y1="48" x2="502.5" y2="642" stroke="#d62728" stroke-width="1.5" stroke-dasharray="7,5" opacity="0.8"/>
<line x1="930" y1="118" x2="972" y2="118" stroke="#d62728" stroke-width="3"/>
<text x="982" y="122" font-family="sans-serif" font-size="12">W2</text>
<text x="982" y="138" font-family="sans-serif" font-size="11" fill="#555">1/E[X^2]=1.0000</text>
<text x="930" y="685" font-family="sans-serif" font-size="11" fill="#555">Error bars: mean +/- sample stddev</text>
<text x="502.5" y="698" text-anchor="middle" font-family="sans-serif" font-size="14">Kelly multiplier</text>
<text x="24" y="345" transform="rotate(-90 24 345)" text-anchor="middle" font-family="sans-serif" font-size="14">Expected growth per round</text>
</svg>
