<svg xmlns="http://www.w3.org/2000/svg" width="1200" height="720" viewBox="0 0 1200 720">
<rect width="100%" height="100%" fill="white"/>
<text x="105" y="30" font-family="sans-serif" font-size="20">Count + policy Kelly growth</text>
<line x1="105" y1="48" x2="105" y2="642" stroke="#c8c8c8" stroke-width="1"/>
<line x1="105" y1="48" x2="900" y2="48" stroke="#c8c8c8" stroke-width="1"/>
<text x="105" y="666" text-anchor="middle" font-family="sans-serif" font-size="12">0.50</text>
<text x="95.00" y="52.00" text-anchor="end" font-family="sans-serif" font-size="12">1.000041129</text>
<line x1="184.500000000" y1="48.000000000" x2="184.500000000" y2="642.000000000" stroke="#c8c8c8" stroke-width="1"/>
<line x1="105.000000000" y1="107.400000000" x2="900.000000000" y2="107.400000000" stroke="#c8c8c8" stroke-width="1"/>
<line x1="264.000000000" y1="48.000000000" x2="264.000000000" y2="642.000000000" stroke="#c8c8c8" stroke-width="1"/>
<line x1="105.000000000" y1="166.800000000" x2="900.000000000" y2="166.800000000" stroke="#c8c8c8" stroke-width="1"/>
<text x="264.000000000" y="666.000000000" text-anchor="middle" font-family="sans-serif" font-size="12">0.60</text>
<text x="95.00" y="170.80" text-anchor="end" font-family="sans-serif" font-size="12">1.000028144</text>
<line x1="343.500000000" y1="48.000000000" x2="343.500000000" y2="642.000000000" stroke="#c8c8c8" stroke-width="1"/>
<line x1="105.000000000" y1="226.200000000" x2="900.000000000" y2="226.200000000" stroke="#c8c8c8" stroke-width="1"/>
<line x1="423.000000000" y1="48.000000000" x2="423.000000000" y2="642.000000000" stroke="#c8c8c8" stroke-width="1"/>
<line x1="105.000000000" y1="285.600000000" x2="900.000000000" y2="285.600000000" stroke="#c8c8c8" stroke-width="1"/>
<text x="423.000000000" y="666.000000000" text-anchor="middle" font-family="sans-serif" font-size="12">0.70</text>
<text x="95.00" y="289.60" text-anchor="end" font-family="sans-serif" font-size="12">1.000015158</text>
<line x1="502.500000000" y1="48.000000000" x2="502.500000000" y2="642.000000000" stroke="#c8c8c8" stroke-width="1"/>
<line x1="105.000000000" y1="345.000000000" x2="900.000000000" y2="345.000000000" stroke="#c8c8c8" stroke-width="1"/>
<line x1="582.000000000" y1="48.000000000" x2="582.000000000" y2="642.000000000" stroke="#c8c8c8" stroke-width="1"/>
<line x1="105.000000000" y1="404.400000000" x2="900.000000000" y2="404.400000000" stroke="#c8c8c8" stroke-width="1"/>
<text x="582.000000000" y="666.000000000" text-anchor="middle" font-family="sans-serif" font-size="12">0.80</text>
<text x="95.00" y="408.40" text-anchor="end" font-family="sans-serif" font-size="12">1.000002172</text>
<line x1="661.500000000" y1="48.000000000" x2="661.500000000" y2="642.000000000" stroke="#c8c8c8" stroke-width="1"/>
<line x1="105.000000000" y1="463.800000000" x2="900.000000000" y2="463.800000000" stroke="#c8c8c8" stroke-width="1"/>
<line x1="741.000000000" y1="48.000000000" x2="741.000000000" y2="642.000000000" stroke="#c8c8c8" stroke-width="1"/>
<line x1="105.000000000" y1="523.200000000" x2="900.000000000" y2="523.200000000" stroke="#c8c8c8" stroke-width="1"/>
<text x="741.000000000" y="666.000000000" text-anchor="middle" font-family="sans-serif" font-size="12">0.90</text>
<text x="95.00" y="527.20" text-anchor="end" font-family="sans-serif" font-size="12">0.999989187</text>
<line x1="820.500000000" y1="48.000000000" x2="820.500000000" y2="642.000000000" stroke="#c8c8c8" stroke-width="1"/>
<line x1="105.000000000" y1="582.600000000" x2="900.000000000" y2="582.600000000" stroke="#c8c8c8" stroke-width="1"/>
<line x1="900.000000000" y1="48.000000000" x2="900.000000000" y2="642.000000000" stroke="#c8c8c8" stroke-width="1"/>
<line x1="105.000000000" y1="642.000000000" x2="900.000000000" y2="642.000000000" stroke="#c8c8c8" stroke-width="1"/>
<text x="900.000000000" y="666.000000000" text-anchor="middle" font-family="sans-serif" font-size="12">1.00</text>
<text x="95.00" y="646.00" text-anchor="end" font-family="sans-serif" font-size="12">0.999976201</text>
<rect x="105" y="48" width="795" height="594" fill="none" stroke="#222" stroke-width="1.5"/>
<path d="M 105 187.243 L 184.5 196.45 L 264 197.408 L 343.5 216.706 L 423 228.998 L 502.5 253.318 L 582 283.303 L 661.5 317.343 L 741 355.309 L 820.5 395.742 L 900 440.53" fill="none" stroke="#1f77b4" stroke-width="3"/>
<line x1="105" y1="116.538461538" x2="105" y2="257.947137111" stroke="#1f77b4" stroke-width="2" opacity="0.85"/>
<line x1="100" y1="116.538461538" x2="110" y2="116.538461538" stroke="#1f77b4" stroke-width="2" opacity="0.85"/>
<line x1="100" y1="257.947137111" x2="110" y2="257.947137111" stroke="#1f77b4" stroke-width="2" opacity="0.85"/>
<circle cx="105" cy="187.242799324" r="4" fill="#1f77b4"/>
<line x1="184.5" y1="121.861834334" x2="184.5" y2="271.038073022" stroke="#1f77b4" stroke-width="2" opacity="0.85"/>
<line x1="179.5" y1="121.861834334" x2="189.5" y2="121.861834334" stroke="#1f77b4" stroke-width="2" opacity="0.85"/>
<line x1="179.5" y1="271.038073022" x2="189.5" y2="271.038073022" stroke="#1f77b4" stroke-width="2" opacity="0.85"/>
<circle cx="184.5" cy="196.449953678" r="4" fill="#1f77b4"/>
<line x1="264" y1="117.160336302" x2="264" y2="277.655546675" stroke="#1f77b4" stroke-width="2" opacity="0.85"/>
<line x1="259" y1="117.160336302" x2="269" y2="117.160336302" stroke="#1f77b4" stroke-width="2" opacity="0.85"/>
<line x1="259" y1="277.655546675" x2="269" y2="277.655546675" stroke="#1f77b4" stroke-width="2" opacity="0.85"/>
<circle cx="264" cy="197.407941489" r="4" fill="#1f77b4"/>
<line x1="343.5" y1="131.910058991" x2="343.5" y2="301.501460319" stroke="#1f77b4" stroke-width="2" opacity="0.85"/>
<line x1="338.5" y1="131.910058991" x2="348.5" y2="131.910058991" stroke="#1f77b4" stroke-width="2" opacity="0.85"/>
<line x1="338.5" y1="301.501460319" x2="348.5" y2="301.501460319" stroke="#1f77b4" stroke-width="2" opacity="0.85"/>
<circle cx="343.5" cy="216.705759655" r="4" fill="#1f77b4"/>
<line x1="423" y1="131.154701446" x2="423" y2="326.841824726" stroke="#1f77b4" stroke-width="2" opacity="0.85"/>
<line x1="418" y1="131.154701446" x2="428" y2="131.154701446" stroke="#1f77b4" stroke-width="2" opacity="0.85"/>
<line x1="418" y1="326.841824726" x2="428" y2="326.841824726" stroke="#1f77b4" stroke-width="2" opacity="0.85"/>
<circle cx="423" cy="228.998263086" r="4" fill="#1f77b4"/>
<line x1="502.5" y1="154.529328928" x2="502.5" y2="352.106237252" stroke="#1f77b4" stroke-width="2" opacity="0.85"/>
<line x1="497.5" y1="154.529328928" x2="507.5" y2="154.529328928" stroke="#1f77b4" stroke-width="2" opacity="0.85"/>
<line x1="497.5" y1="352.106237252" x2="507.5" y2="352.106237252" stroke="#1f77b4" stroke-width="2" opacity="0.85"/>
<circle cx="502.5" cy="253.31778309" r="4" fill="#1f77b4"/>
<line x1="582" y1="178.159026411" x2="582" y2="388.446880985" stroke="#1f77b4" stroke-width="2" opacity="0.85"/>
<line x1="577" y1="178.159026411" x2="587" y2="178.159026411" stroke="#1f77b4" stroke-width="2" opacity="0.85"/>
<line x1="577" y1="388.446880985" x2="587" y2="388.446880985" stroke="#1f77b4" stroke-width="2" opacity="0.85"/>
<circle cx="582" cy="283.302953698" r="4" fill="#1f77b4"/>
<line x1="661.5" y1="203.98059415" x2="661.5" y2="430.704690423" stroke="#1f77b4" stroke-width="2" opacity="0.85"/>
<line x1="656.5" y1="203.98059415" x2="666.5" y2="203.98059415" stroke="#1f77b4" stroke-width="2" opacity="0.85"/>
<line x1="656.5" y1="430.704690423" x2="666.5" y2="430.704690423" stroke="#1f77b4" stroke-width="2" opacity="0.85"/>
<circle cx="661.5" cy="317.342642287" r="4" fill="#1f77b4"/>
<line x1="741" y1="233.704984829" x2="741" y2="476.913989052" stroke="#1f77b4" stroke-width="2" opacity="0.85"/>
<line x1="736" y1="233.704984829" x2="746" y2="233.704984829" stroke="#1f77b4" stroke-width="2" opacity="0.85"/>
<line x1="736" y1="476.913989052" x2="746" y2="476.913989052" stroke="#1f77b4" stroke-width="2" opacity="0.85"/>
<circle cx="741" cy="355.30948694" r="4" fill="#1f77b4"/>
<line x1="820.5" y1="269.794834748" x2="820.5" y2="521.689520543" stroke="#1f77b4" stroke-width="2" opacity="0.85"/>
<line x1="815.5" y1="269.794834748" x2="825.5" y2="269.794834748" stroke="#1f77b4" stroke-width="2" opacity="0.85"/>
<line x1="815.5" y1="521.689520543" x2="825.5" y2="521.689520543" stroke="#1f77b4" stroke-width="2" opacity="0.85"/>
<circle cx="820.5" cy="395.742177645" r="4" fill="#1f77b4"/>
<line x1="900" y1="307.597807904" x2="900" y2="573.461538461" stroke="#1f77b4" stroke-width="2" opacity="0.85"/>
<line x1="895" y1="307.597807904" x2="905" y2="307.597807904" stroke="#1f77b4" stroke-width="2" opacity="0.85"/>
<line x1="895" y1="573.461538461" x2="905" y2="573.461538461" stroke="#1f77b4" stroke-width="2" opacity="0.85"/>
<circle cx="900" cy="440.529673183" r="4" fill="#1f77b4"/>
<line x1="900" y1="48" x2="900" y2="642" stroke="#1f77b4" stroke-width="1.5" stroke-dasharray="7,5" opacity="0.8"/>
<line x1="930" y1="70" x2="972" y2="70" stroke="#1f77b4" stroke-width="3"/>
<text x="982" y="74" font-family="sans-serif" font-size="12">basic strategy</text>
<text x="982" y="90" font-family="sans-serif" font-size="11" fill="#555">1/E[X^2]=1.0000</text>
<text x="930" y="685" font-family="sans-serif" font-size="11" fill="#555">Error bars: mean +/- sample stddev</text>
<text x="502.5" y="698" text-anchor="middle" font-family="sans-serif" font-size="14">Kelly multiplier</text>
<text x="24" y="345" transform="rotate(-90 24 345)" text-anchor="middle" font-family="sans-serif" font-size="14">Expected growth per round</text>
</svg>
