<svg xmlns="http://www.w3.org/2000/svg" width="1200" height="720" viewBox="0 0 1200 720">
<rect width="100%" height="100%" fill="white"/>
<text x="105" y="30" font-family="sans-serif" font-size="20">W1..W2 Kelly growth</text>
<line x1="105" y1="48" x2="105" y2="642" stroke="#c8c8c8" stroke-width="1"/>
<line x1="105" y1="48" x2="900" y2="48" stroke="#c8c8c8" stroke-width="1"/>
<text x="105" y="666" text-anchor="middle" font-family="sans-serif" font-size="12">0.75</text>
<text x="95.00" y="52.00" text-anchor="end" font-family="sans-serif" font-size="12">1.000246712</text>
<line x1="184.500000000" y1="48.000000000" x2="184.500000000" y2="642.000000000" stroke="#c8c8c8" stroke-width="1"/>
<line x1="105.000000000" y1="107.400000000" x2="900.000000000" y2="107.400000000" stroke="#c8c8c8" stroke-width="1"/>
<line x1="264.000000000" y1="48.000000000" x2="264.000000000" y2="642.000000000" stroke="#c8c8c8" stroke-width="1"/>
<line x1="105.000000000" y1="166.800000000" x2="900.000000000" y2="166.800000000" stroke="#c8c8c8" stroke-width="1"/>
<text x="264.000000000" y="666.000000000" text-anchor="middle" font-family="sans-serif" font-size="12">0.85</text>
<text x="95.00" y="170.80" text-anchor="end" font-family="sans-serif" font-size="12">1.000208036</text>
<line x1="343.500000000" y1="48.000000000" x2="343.500000000" y2="642.000000000" stroke="#c8c8c8" stroke-width="1"/>
<line x1="105.000000000" y1="226.200000000" x2="900.000000000" y2="226.200000000" stroke="#c8c8c8" stroke-width="1"/>
<line x1="423.000000000" y1="48.000000000" x2="423.000000000" y2="642.000000000" stroke="#c8c8c8" stroke-width="1"/>
<line x1="105.000000000" y1="285.600000000" x2="900.000000000" y2="285.600000000" stroke="#c8c8c8" stroke-width="1"/>
<text x="423.000000000" y="666.000000000" text-anchor="middle" font-family="sans-serif" font-size="12">0.95</text>
<text x="95.00" y="289.60" text-anchor="end" font-family="sans-serif" font-size="12">1.000169359</text>
<line x1="502.500000000" y1="48.000000000" x2="502.500000000" y2="642.000000000" stroke="#c8c8c8" stroke-width="1"/>
<line x1="105.000000000" y1="345.000000000" x2="900.000000000" y2="345.000000000" stroke="#c8c8c8" stroke-width="1"/>
<line x1="582.000000000" y1="48.000000000" x2="582.000000000" y2="642.000000000" stroke="#c8c8c8" stroke-width="1"/>
<line x1="105.000000000" y1="404.400000000" x2="900.000000000" y2="404.400000000" stroke="#c8c8c8" stroke-width="1"/>
<text x="582.000000000" y="666.000000000" text-anchor="middle" font-family="sans-serif" font-size="12">1.05</text>
<text x="95.00" y="408.40" text-anchor="end" font-family="sans-serif" font-size="12">1.000130683</text>
<line x1="661.500000000" y1="48.000000000" x2="661.500000000" y2="642.000000000" stroke="#c8c8c8" stroke-width="1"/>
<line x1="105.000000000" y1="463.800000000" x2="900.000000000" y2="463.800000000" stroke="#c8c8c8" stroke-width="1"/>
<line x1="741.000000000" y1="48.000000000" x2="741.000000000" y2="642.000000000" stroke="#c8c8c8" stroke-width="1"/>
<line x1="105.000000000" y1="523.200000000" x2="900.000000000" y2="523.200000000" stroke="#c8c8c8" stroke-width="1"/>
<text x="741.000000000" y="666.000000000" text-anchor="middle" font-family="sans-serif" font-size="12">1.15</text>
<text x="95.00" y="527.20" text-anchor="end" font-family="sans-serif" font-size="12">1.000092007</text>
<line x1="820.500000000" y1="48.000000000" x2="820.500000000" y2="642.000000000" stroke="#c8c8c8" stroke-width="1"/>
<line x1="105.000000000" y1="582.600000000" x2="900.000000000" y2="582.600000000" stroke="#c8c8c8" stroke-width="1"/>
<line x1="900.000000000" y1="48.000000000" x2="900.000000000" y2="642.000000000" stroke="#c8c8c8" stroke-width="1"/>
<line x1="105.000000000" y1="642.000000000" x2="900.000000000" y2="642.000000000" stroke="#c8c8c8" stroke-width="1"/>
<text x="900.000000000" y="666.000000000" text-anchor="middle" font-family="sans-serif" font-size="12">1.25</text>
<text x="95.00" y="646.00" text-anchor="end" font-family="sans-serif" font-size="12">1.000053331</text>
<rect x="105" y="48" width="795" height="594" fill="none" stroke="#222" stroke-width="1.5"/>
<path d="M 105 470.253 L 184.5 465.7 L 264 460.166 L 343.5 461.134 L 423 462.39 L 502.5 462.307 L 582 468.119 L 661.5 478.463 L 741 483.388 L 820.5 495.091 L 900 509.361" fill="none" stroke="#1f77b4" stroke-width="3"/>
<line x1="105" y1="432.701649952" x2="105" y2="507.803371766" stroke="#1f77b4" stroke-width="2" opacity="0.85"/>
<line x1="100" y1="432.701649952" x2="110" y2="432.701649952" stroke="#1f77b4" stroke-width="2" opacity="0.85"/>
<line x1="100" y1="507.803371766" x2="110" y2="507.803371766" stroke="#1f77b4" stroke-width="2" opacity="0.85"/>
<circle cx="105" cy="470.252510859" r="4" fill="#1f77b4"/>
<line x1="184.5" y1="426.523685282" x2="184.5" y2="504.87590652" stroke="#1f77b4" stroke-width="2" opacity="0.85"/>
<line x1="179.5" y1="426.523685282" x2="189.5" y2="426.523685282" stroke="#1f77b4" stroke-width="2" opacity="0.85"/>
<line x1="179.5" y1="504.87590652" x2="189.5" y2="504.87590652" stroke="#1f77b4" stroke-width="2" opacity="0.85"/>
<circle cx="184.5" cy="465.699795901" r="4" fill="#1f77b4"/>
<line x1="264" y1="416.518423179" x2="264" y2="503.812620509" stroke="#1f77b4" stroke-width="2" opacity="0.85"/>
<line x1="259" y1="416.518423179" x2="269" y2="416.518423179" stroke="#1f77b4" stroke-width="2" opacity="0.85"/>
<line x1="259" y1="503.812620509" x2="269" y2="503.812620509" stroke="#1f77b4" stroke-width="2" opacity="0.85"/>
<circle cx="264" cy="460.165521844" r="4" fill="#1f77b4"/>
<line x1="343.5" y1="416.243701695" x2="343.5" y2="506.02454534" stroke="#1f77b4" stroke-width="2" opacity="0.85"/>
<line x1="338.5" y1="416.243701695" x2="348.5" y2="416.243701695" stroke="#1f77b4" stroke-width="2" opacity="0.85"/>
<line x1="338.5" y1="506.02454534" x2="348.5" y2="506.02454534" stroke="#1f77b4" stroke-width="2" opacity="0.85"/>
<circle cx="343.5" cy="461.134123518" r="4" fill="#1f77b4"/>
<line x1="423" y1="413.416322769" x2="423" y2="511.363587969" stroke="#1f77b4" stroke-width="2" opacity="0.85"/>
<line x1="418" y1="413.416322769" x2="428" y2="413.416322769" stroke="#1f77b4" stroke-width="2" opacity="0.85"/>
<line x1="418" y1="511.363587969" x2="428" y2="511.363587969" stroke="#1f77b4" stroke-width="2" opacity="0.85"/>
<circle cx="423" cy="462.389955369" r="4" fill="#1f77b4"/>
<line x1="502.5" y1="411.311561637" x2="502.5" y2="513.302578515" stroke="#1f77b4" stroke-width="2" opacity="0.85"/>
<line x1="497.5" y1="411.311561637" x2="507.5" y2="411.311561637" stroke="#1f77b4" stroke-width="2" opacity="0.85"/>
<line x1="497.5" y1="513.302578515" x2="507.5" y2="513.302578515" stroke="#1f77b4" stroke-width="2" opacity="0.85"/>
<circle cx="502.5" cy="462.307070076" r="4" fill="#1f77b4"/>
<line x1="582" y1="412.395952337" x2="582" y2="523.84143319" stroke="#1f77b4" stroke-width="2" opacity="0.85"/>
<line x1="577" y1="412.395952337" x2="587" y2="412.395952337" stroke="#1f77b4" stroke-width="2" opacity="0.85"/>
<line x1="577" y1="523.84143319" x2="587" y2="523.84143319" stroke="#1f77b4" stroke-width="2" opacity="0.85"/>
<circle cx="582" cy="468.118692763" r="4" fill="#1f77b4"/>
<line x1="661.5" y1="420.734637636" x2="661.5" y2="536.190600923" stroke="#1f77b4" stroke-width="2" opacity="0.85"/>
<line x1="656.5" y1="420.734637636" x2="666.5" y2="420.734637636" stroke="#1f77b4" stroke-width="2" opacity="0.85"/>
<line x1="656.5" y1="536.190600923" x2="666.5" y2="536.190600923" stroke="#1f77b4" stroke-width="2" opacity="0.85"/>
<circle cx="661.5" cy="478.46261928" r="4" fill="#1f77b4"/>
<line x1="741" y1="424.874322522" x2="741" y2="541.902041599" stroke="#1f77b4" stroke-width="2" opacity="0.85"/>
<line x1="736" y1="424.874322522" x2="746" y2="424.874322522" stroke="#1f77b4" stroke-width="2" opacity="0.85"/>
<line x1="736" y1="541.902041599" x2="746" y2="541.902041599" stroke="#1f77b4" stroke-width="2" opacity="0.85"/>
<circle cx="741" cy="483.38818206" r="4" fill="#1f77b4"/>
<line x1="820.5" y1="435.764499355" x2="820.5" y2="554.417423717" stroke="#1f77b4" stroke-width="2" opacity="0.85"/>
<line x1="815.5" y1="435.764499355" x2="825.5" y2="435.764499355" stroke="#1f77b4" stroke-width="2" opacity="0.85"/>
<line x1="815.5" y1="554.417423717" x2="825.5" y2="554.417423717" stroke="#1f77b4" stroke-width="2" opacity="0.85"/>
<circle cx="820.5" cy="495.090961536" r="4" fill="#1f77b4"/>
<line x1="900" y1="445.260832224" x2="900" y2="573.461538461" stroke="#1f77b4" stroke-width="2" opacity="0.85"/>
<line x1="895" y1="445.260832224" x2="905" y2="445.260832224" stroke="#1f77b4" stroke-width="2" opacity="0.85"/>
<line x1="895" y1="573.461538461" x2="905" y2="573.461538461" stroke="#1f77b4" stroke-width="2" opacity="0.85"/>
<circle cx="900" cy="509.361185342" r="4" fill="#1f77b4"/>
<line x1="502.5" y1="48" x2="502.5" y2="642" stroke="#1f77b4" stroke-width="1.5" stroke-dasharray="7,5" opacity="0.8"/>
<line x1="930" y1="70" x2="972" y2="70" stroke="#1f77b4" stroke-width="3"/>
<text x="982" y="74" font-family="sans-serif" font-size="12">W1</text>
<text x="982" y="90" font-family="sans-serif" font-size="11" fill="#555">1/E[X^2]=1.0000</text>
<path d="M 105 236.797 L 184.5 219.265 L 264 202.519 L 343.5 194.434 L 423 188.933 L 502.5 181.341 L 582 182.595 L 661.5 182.016 L 741 183.864 L 820.5 193.841 L 900 197" fill="none" stroke="#d62728" stroke-width="3"/>
<line x1="105" y1="192.393073736" x2="105" y2="281.201477089" stroke="#d62728" stroke-width="2" opacity="0.85"/>
<line x1="100" y1="192.393073736" x2="110" y2="192.393073736" stroke="#d62728" stroke-width="2" opacity="0.85"/>
<line x1="100" y1="281.201477089" x2="110" y2="281.201477089" stroke="#d62728" stroke-width="2" opacity="0.85"/>
<circle cx="105" cy="236.797275413" r="4" fill="#d62728"/>
<line x1="184.5" y1="173.482426816" x2="184.5" y2="265.047757486" stroke="#d62728" stroke-width="2" opacity="0.85"/>
<line x1="179.5" y1="173.482426816" x2="189.5" y2="173.482426816" stroke="#d62728" stroke-width="2" opacity="0.85"/>
<line x1="179.5" y1="265.047757486" x2="189.5" y2="265.047757486" stroke="#d62728" stroke-width="2" opacity="0.85"/>
<circle cx="184.5" cy="219.265092151" r="4" fill="#d62728"/>
<line x1="264" y1="152.051520531" x2="264" y2="252.986843327" stroke="#d62728" stroke-width="2" opacity="0.85"/>
<line x1="259" y1="152.051520531" x2="269" y2="152.051520531" stroke="#d62728" stroke-width="2" opacity="0.85"/>
<line x1="259" y1="252.986843327" x2="269" y2="252.986843327" stroke="#d62728" stroke-width="2" opacity="0.85"/>
<circle cx="264" cy="202.519181929" r="4" fill="#d62728"/>
<line x1="343.5" y1="141.580725134" x2="343.5" y2="247.286378522" stroke="#d62728" stroke-width="2" opacity="0.85"/>
<line x1="338.5" y1="141.580725134" x2="348.5" y2="141.580725134" stroke="#d62728" stroke-width="2" opacity="0.85"/>
<line x1="338.5" y1="247.286378522" x2="348.5" y2="247.286378522" stroke="#d62728" stroke-width="2" opacity="0.85"/>
<circle cx="343.5" cy="194.433551828" r="4" fill="#d62728"/>
<line x1="423" y1="134.503410195" x2="423" y2="243.362429832" stroke="#d62728" stroke-width="2" opacity="0.85"/>
<line x1="418" y1="134.503410195" x2="428" y2="134.503410195" stroke="#d62728" stroke-width="2" opacity="0.85"/>
<line x1="418" y1="243.362429832" x2="428" y2="243.362429832" stroke="#d62728" stroke-width="2" opacity="0.85"/>
<circle cx="423" cy="188.932920014" r="4" fill="#d62728"/>
<line x1="502.5" y1="125.794515652" x2="502.5" y2="236.888071904" stroke="#d62728" stroke-width="2" opacity="0.85"/>
<line x1="497.5" y1="125.794515652" x2="507.5" y2="125.794515652" stroke="#d62728" stroke-width="2" opacity="0.85"/>
<line x1="497.5" y1="236.888071904" x2="507.5" y2="236.888071904" stroke="#d62728" stroke-width="2" opacity="0.85"/>
<circle cx="502.5" cy="181.341293778" r="4" fill="#d62728"/>
<line x1="582" y1="121.374959647" x2="582" y2="243.814156003" stroke="#d62728" stroke-width="2" opacity="0.85"/>
<line x1="577" y1="121.374959647" x2="587" y2="121.374959647" stroke="#d62728" stroke-width="2" opacity="0.85"/>
<line x1="577" y1="243.814156003" x2="587" y2="243.814156003" stroke="#d62728" stroke-width="2" opacity="0.85"/>
<circle cx="582" cy="182.594557825" r="4" fill="#d62728"/>
<line x1="661.5" y1="116.785986736" x2="661.5" y2="247.245096374" stroke="#d62728" stroke-width="2" opacity="0.85"/>
<line x1="656.5" y1="116.785986736" x2="666.5" y2="116.785986736" stroke="#d62728" stroke-width="2" opacity="0.85"/>
<line x1="656.5" y1="247.245096374" x2="666.5" y2="247.245096374" stroke="#d62728" stroke-width="2" opacity="0.85"/>
<circle cx="661.5" cy="182.015541555" r="4" fill="#d62728"/>
<line x1="741" y1="116.538461539" x2="741" y2="251.189326853" stroke="#d62728" stroke-width="2" opacity="0.85"/>
<line x1="736" y1="116.538461539" x2="746" y2="116.538461539" stroke="#d62728" stroke-width="2" opacity="0.85"/>
<line x1="736" y1="251.189326853" x2="746" y2="251.189326853" stroke="#d62728" stroke-width="2" opacity="0.85"/>
<circle cx="741" cy="183.863894196" r="4" fill="#d62728"/>
<line x1="820.5" y1="125.109009208" x2="820.5" y2="262.573323317" stroke="#d62728" stroke-width="2" opacity="0.85"/>
<line x1="815.5" y1="125.109009208" x2="825.5" y2="125.109009208" stroke="#d62728" stroke-width="2" opacity="0.85"/>
<line x1="815.5" y1="262.573323317" x2="825.5" y2="262.573323317" stroke="#d62728" stroke-width="2" opacity="0.85"/>
<circle cx="820.5" cy="193.841166262" r="4" fill="#d62728"/>
<line x1="900" y1="127.194648313" x2="900" y2="266.806320227" stroke="#d62728" stroke-width="2" opacity="0.85"/>
<line x1="895" y1="127.194648313" x2="905" y2="127.194648313" stroke="#d62728" stroke-width="2" opacity="0.85"/>
<line x1="895" y1="266.806320227" x2="905" y2="266.806320227" stroke="#d62728" stroke-width="2" opacity="0.85"/>
<circle cx="900" cy="197.00048427" r="4" fill="#d62728"/>
<line x1="502.5" y1="48" x2="502.5" y2="642" stroke="#d62728" stroke-width="1.5" stroke-dasharray="7,5" opacity="0.8"/>
<line x1="930" y1="118" x2="972" y2="118" stroke="#d62728" stroke-width="3"/>
<text x="982" y="122" font-family="sans-serif" font-size="12">W2</text>
<text x="982" y="138" font-family="sans-serif" font-size="11" fill="#555">1/E[X^2]=1.0000</text>
<text x="930" y="685" font-family="sans-serif" font-size="11" fill="#555">Error bars: mean +/- sample stddev</text>
<text x="502.5" y="698" text-anchor="middle" font-family="sans-serif" font-size="14">Kelly multiplier</text>
<text x="24" y="345" transform="rotate(-90 24 345)" text-anchor="middle" font-family="sans-serif" font-size="14">Expected growth per round</text>
</svg>
