<svg xmlns="http://www.w3.org/2000/svg" width="1200" height="720" viewBox="0 0 1200 720">
<rect width="100%" height="100%" fill="white"/>
<text x="105" y="30" font-family="sans-serif" font-size="20">Count + policy Kelly growth</text>
<line x1="105" y1="48" x2="105" y2="642" stroke="#c8c8c8" stroke-width="1"/>
<line x1="105" y1="48" x2="900" y2="48" stroke="#c8c8c8" stroke-width="1"/>
<text x="105" y="666" text-anchor="middle" font-family="sans-serif" font-size="12">0.50</text>
<text x="95.00" y="52.00" text-anchor="end" font-family="sans-serif" font-size="12">1.134197161</text>
<line x1="184.500000000" y1="48.000000000" x2="184.500000000" y2="642.000000000" stroke="#c8c8c8" stroke-width="1"/>
<line x1="105.000000000" y1="107.400000000" x2="900.000000000" y2="107.400000000" stroke="#c8c8c8" stroke-width="1"/>
<line x1="264.000000000" y1="48.000000000" x2="264.000000000" y2="642.000000000" stroke="#c8c8c8" stroke-width="1"/>
<line x1="105.000000000" y1="166.800000000" x2="900.000000000" y2="166.800000000" stroke="#c8c8c8" stroke-width="1"/>
<text x="264.000000000" y="666.000000000" text-anchor="middle" font-family="sans-serif" font-size="12">0.60</text>
<text x="95.00" y="170.80" text-anchor="end" font-family="sans-serif" font-size="12">1.075272100</text>
<line x1="343.500000000" y1="48.000000000" x2="343.500000000" y2="642.000000000" stroke="#c8c8c8" stroke-width="1"/>
<line x1="105.000000000" y1="226.200000000" x2="900.000000000" y2="226.200000000" stroke="#c8c8c8" stroke-width="1"/>
<line x1="423.000000000" y1="48.000000000" x2="423.000000000" y2="642.000000000" stroke="#c8c8c8" stroke-width="1"/>
<line x1="105.000000000" y1="285.600000000" x2="900.000000000" y2="285.600000000" stroke="#c8c8c8" stroke-width="1"/>
<text x="423.000000000" y="666.000000000" text-anchor="middle" font-family="sans-serif" font-size="12">0.70</text>
<text x="95.00" y="289.60" text-anchor="end" font-family="sans-serif" font-size="12">1.016347038</text>
<line x1="502.500000000" y1="48.000000000" x2="502.500000000" y2="642.000000000" stroke="#c8c8c8" stroke-width="1"/>
<line x1="105.000000000" y1="345.000000000" x2="900.000000000" y2="345.000000000" stroke="#c8c8c8" stroke-width="1"/>
<line x1="582.000000000" y1="48.000000000" x2="582.000000000" y2="642.000000000" stroke="#c8c8c8" stroke-width="1"/>
<line x1="105.000000000" y1="404.400000000" x2="900.000000000" y2="404.400000000" stroke="#c8c8c8" stroke-width="1"/>
<text x="582.000000000" y="666.000000000" text-anchor="middle" font-family="sans-serif" font-size="12">0.80</text>
<text x="95.00" y="408.40" text-anchor="end" font-family="sans-serif" font-size="12">0.957421976</text>
<line x1="661.500000000" y1="48.000000000" x2="661.500000000" y2="642.000000000" stroke="#c8c8c8" stroke-width="1"/>
<line x1="105.000000000" y1="463.800000000" x2="900.000000000" y2="463.800000000" stroke="#c8c8c8" stroke-width="1"/>
<line x1="741.000000000" y1="48.000000000" x2="741.000000000" y2="642.000000000" stroke="#c8c8c8" stroke-width="1"/>
<line x1="105.000000000" y1="523.200000000" x2="900.000000000" y2="523.200000000" stroke="#c8c8c8" stroke-width="1"/>
<text x="741.000000000" y="666.000000000" text-anchor="middle" font-family="sans-serif" font-size="12">0.90</text>
<text x="95.00" y="527.20" text-anchor="end" font-family="sans-serif" font-size="12">0.898496914</text>
<line x1="820.500000000" y1="48.000000000" x2="820.500000000" y2="642.000000000" stroke="#c8c8c8" stroke-width="1"/>
<line x1="105.000000000" y1="582.600000000" x2="900.000000000" y2="582.600000000" stroke="#c8c8c8" stroke-width="1"/>
<line x1="900.000000000" y1="48.000000000" x2="900.000000000" y2="642.000000000" stroke="#c8c8c8" stroke-width="1"/>
<line x1="105.000000000" y1="642.000000000" x2="900.000000000" y2="642.000000000" stroke="#c8c8c8" stroke-width="1"/>
<text x="900.000000000" y="666.000000000" text-anchor="middle" font-family="sans-serif" font-size="12">1.00</text>
<text x="95.00" y="646.00" text-anchor="end" font-family="sans-serif" font-size="12">0.839571852</text>
<rect x="105" y="48" width="795" height="594" fill="none" stroke="#222" stroke-width="1.5"/>
<path d="M 105 318.411 L 184.5 318.429 L 264 318.446 L 343.5 318.472 L 423 318.503 L 502.5 318.536 L 582 318.576 L 661.5 318.624 L 741 318.676 L 820.5 322.766 L 900 345" fill="none" stroke="#1f77b4" stroke-width="3"/>
<line x1="105" y1="318.377001808" x2="105" y2="318.445081404" stroke="#1f77b4" stroke-width="2" opacity="0.85"/>
<line x1="100" y1="318.377001808" x2="110" y2="318.377001808" stroke="#1f77b4" stroke-width="2" opacity="0.85"/>
<line x1="100" y1="318.445081404" x2="110" y2="318.445081404" stroke="#1f77b4" stroke-width="2" opacity="0.85"/>
<circle cx="105" cy="318.411041606" r="4" fill="#1f77b4"/>
<line x1="184.5" y1="318.392322668" x2="184.5" y2="318.464728241" stroke="#1f77b4" stroke-width="2" opacity="0.85"/>
<line x1="179.5" y1="318.392322668" x2="189.5" y2="318.392322668" stroke="#1f77b4" stroke-width="2" opacity="0.85"/>
<line x1="179.5" y1="318.464728241" x2="189.5" y2="318.464728241" stroke="#1f77b4" stroke-width="2" opacity="0.85"/>
<circle cx="184.5" cy="318.428525455" r="4" fill="#1f77b4"/>
<line x1="264" y1="318.408642042" x2="264" y2="318.483572485" stroke="#1f77b4" stroke-width="2" opacity="0.85"/>
<line x1="259" y1="318.408642042" x2="269" y2="318.408642042" stroke="#1f77b4" stroke-width="2" opacity="0.85"/>
<line x1="259" y1="318.483572485" x2="269" y2="318.483572485" stroke="#1f77b4" stroke-width="2" opacity="0.85"/>
<circle cx="264" cy="318.446107263" r="4" fill="#1f77b4"/>
<line x1="343.5" y1="318.428593238" x2="343.5" y2="318.515104443" stroke="#1f77b4" stroke-width="2" opacity="0.85"/>
<line x1="338.5" y1="318.428593238" x2="348.5" y2="318.428593238" stroke="#1f77b4" stroke-width="2" opacity="0.85"/>
<line x1="338.5" y1="318.515104443" x2="348.5" y2="318.515104443" stroke="#1f77b4" stroke-width="2" opacity="0.85"/>
<circle cx="343.5" cy="318.47184884" r="4" fill="#1f77b4"/>
<line x1="423" y1="318.457799728" x2="423" y2="318.548048805" stroke="#1f77b4" stroke-width="2" opacity="0.85"/>
<line x1="418" y1="318.457799728" x2="428" y2="318.457799728" stroke="#1f77b4" stroke-width="2" opacity="0.85"/>
<line x1="418" y1="318.548048805" x2="428" y2="318.548048805" stroke="#1f77b4" stroke-width="2" opacity="0.85"/>
<circle cx="423" cy="318.502924266" r="4" fill="#1f77b4"/>
<line x1="502.5" y1="318.487137864" x2="502.5" y2="318.585294913" stroke="#1f77b4" stroke-width="2" opacity="0.85"/>
<line x1="497.5" y1="318.487137864" x2="507.5" y2="318.487137864" stroke="#1f77b4" stroke-width="2" opacity="0.85"/>
<line x1="497.5" y1="318.585294913" x2="507.5" y2="318.585294913" stroke="#1f77b4" stroke-width="2" opacity="0.85"/>
<circle cx="502.5" cy="318.536216388" r="4" fill="#1f77b4"/>
<line x1="582" y1="318.522171485" x2="582" y2="318.63065286" stroke="#1f77b4" stroke-width="2" opacity="0.85"/>
<line x1="577" y1="318.522171485" x2="587" y2="318.522171485" stroke="#1f77b4" stroke-width="2" opacity="0.85"/>
<line x1="577" y1="318.63065286" x2="587" y2="318.63065286" stroke="#1f77b4" stroke-width="2" opacity="0.85"/>
<circle cx="582" cy="318.576412172" r="4" fill="#1f77b4"/>
<line x1="661.5" y1="318.569659398" x2="661.5" y2="318.67890923" stroke="#1f77b4" stroke-width="2" opacity="0.85"/>
<line x1="656.5" y1="318.569659398" x2="666.5" y2="318.569659398" stroke="#1f77b4" stroke-width="2" opacity="0.85"/>
<line x1="656.5" y1="318.67890923" x2="666.5" y2="318.67890923" stroke="#1f77b4" stroke-width="2" opacity="0.85"/>
<circle cx="661.5" cy="318.624284314" r="4" fill="#1f77b4"/>
<line x1="741" y1="318.613776369" x2="741" y2="318.737675561" stroke="#1f77b4" stroke-width="2" opacity="0.85"/>
<line x1="736" y1="318.613776369" x2="746" y2="318.613776369" stroke="#1f77b4" stroke-width="2" opacity="0.85"/>
<line x1="736" y1="318.737675561" x2="746" y2="318.737675561" stroke="#1f77b4" stroke-width="2" opacity="0.85"/>
<circle cx="741" cy="318.675725965" r="4" fill="#1f77b4"/>
<line x1="820.5" y1="232.655015177" x2="820.5" y2="412.876292191" stroke="#1f77b4" stroke-width="2" opacity="0.85"/>
<line x1="815.5" y1="232.655015177" x2="825.5" y2="232.655015177" stroke="#1f77b4" stroke-width="2" opacity="0.85"/>
<line x1="815.5" y1="412.876292191" x2="825.5" y2="412.876292191" stroke="#1f77b4" stroke-width="2" opacity="0.85"/>
<circle cx="820.5" cy="322.765653684" r="4" fill="#1f77b4"/>
<line x1="900" y1="116.538461538" x2="900" y2="573.461538462" stroke="#1f77b4" stroke-width="2" opacity="0.85"/>
<line x1="895" y1="116.538461538" x2="905" y2="116.538461538" stroke="#1f77b4" stroke-width="2" opacity="0.85"/>
<line x1="895" y1="573.461538462" x2="905" y2="573.461538462" stroke="#1f77b4" stroke-width="2" opacity="0.85"/>
<circle cx="900" cy="345" r="4" fill="#1f77b4"/>
<line x1="900" y1="48" x2="900" y2="642" stroke="#1f77b4" stroke-width="1.5" stroke-dasharray="7,5" opacity="0.8"/>
<line x1="930" y1="70" x2="972" y2="70" stroke="#1f77b4" stroke-width="3"/>
<text x="982" y="74" font-family="sans-serif" font-size="12">fresh full deviations trained for the selected count</text>
<text x="982" y="90" font-family="sans-serif" font-size="11" fill="#555">1/E[X^2]=1.0000</text>
<text x="930" y="685" font-family="sans-serif" font-size="11" fill="#555">Error bars: mean +/- sample stddev</text>
<text x="502.5" y="698" text-anchor="middle" font-family="sans-serif" font-size="14">Kelly multiplier</text>
<text x="24" y="345" transform="rotate(-90 24 345)" text-anchor="middle" font-family="sans-serif" font-size="14">Expected growth per round</text>
</svg>
