<svg xmlns="http://www.w3.org/2000/svg" width="1200" height="720" viewBox="0 0 1200 720">
<rect width="100%" height="100%" fill="white"/>
<text x="105" y="30" font-family="sans-serif" font-size="20">Count + policy Kelly growth</text>
<line x1="105" y1="48" x2="105" y2="642" stroke="#c8c8c8" stroke-width="1"/>
<line x1="105" y1="48" x2="900" y2="48" stroke="#c8c8c8" stroke-width="1"/>
<text x="105" y="666" text-anchor="middle" font-family="sans-serif" font-size="12">0.50</text>
<text x="95.00" y="52.00" text-anchor="end" font-family="sans-serif" font-size="12">1.000030133</text>
<line x1="184.500000000" y1="48.000000000" x2="184.500000000" y2="642.000000000" stroke="#c8c8c8" stroke-width="1"/>
<line x1="105.000000000" y1="107.400000000" x2="900.000000000" y2="107.400000000" stroke="#c8c8c8" stroke-width="1"/>
<line x1="264.000000000" y1="48.000000000" x2="264.000000000" y2="642.000000000" stroke="#c8c8c8" stroke-width="1"/>
<line x1="105.000000000" y1="166.800000000" x2="900.000000000" y2="166.800000000" stroke="#c8c8c8" stroke-width="1"/>
<text x="264.000000000" y="666.000000000" text-anchor="middle" font-family="sans-serif" font-size="12">0.60</text>
<text x="95.00" y="170.80" text-anchor="end" font-family="sans-serif" font-size="12">1.000016336</text>
<line x1="343.500000000" y1="48.000000000" x2="343.500000000" y2="642.000000000" stroke="#c8c8c8" stroke-width="1"/>
<line x1="105.000000000" y1="226.200000000" x2="900.000000000" y2="226.200000000" stroke="#c8c8c8" stroke-width="1"/>
<line x1="423.000000000" y1="48.000000000" x2="423.000000000" y2="642.000000000" stroke="#c8c8c8" stroke-width="1"/>
<line x1="105.000000000" y1="285.600000000" x2="900.000000000" y2="285.600000000" stroke="#c8c8c8" stroke-width="1"/>
<text x="423.000000000" y="666.000000000" text-anchor="middle" font-family="sans-serif" font-size="12">0.70</text>
<text x="95.00" y="289.60" text-anchor="end" font-family="sans-serif" font-size="12">1.000002539</text>
<line x1="502.500000000" y1="48.000000000" x2="502.500000000" y2="642.000000000" stroke="#c8c8c8" stroke-width="1"/>
<line x1="105.000000000" y1="345.000000000" x2="900.000000000" y2="345.000000000" stroke="#c8c8c8" stroke-width="1"/>
<line x1="582.000000000" y1="48.000000000" x2="582.000000000" y2="642.000000000" stroke="#c8c8c8" stroke-width="1"/>
<line x1="105.000000000" y1="404.400000000" x2="900.000000000" y2="404.400000000" stroke="#c8c8c8" stroke-width="1"/>
<text x="582.000000000" y="666.000000000" text-anchor="middle" font-family="sans-serif" font-size="12">0.80</text>
<text x="95.00" y="408.40" text-anchor="end" font-family="sans-serif" font-size="12">0.999988742</text>
<line x1="661.500000000" y1="48.000000000" x2="661.500000000" y2="642.000000000" stroke="#c8c8c8" stroke-width="1"/>
<line x1="105.000000000" y1="463.800000000" x2="900.000000000" y2="463.800000000" stroke="#c8c8c8" stroke-width="1"/>
<line x1="741.000000000" y1="48.000000000" x2="741.000000000" y2="642.000000000" stroke="#c8c8c8" stroke-width="1"/>
<line x1="105.000000000" y1="523.200000000" x2="900.000000000" y2="523.200000000" stroke="#c8c8c8" stroke-width="1"/>
<text x="741.000000000" y="666.000000000" text-anchor="middle" font-family="sans-serif" font-size="12">0.90</text>
<text x="95.00" y="527.20" text-anchor="end" font-family="sans-serif" font-size="12">0.999974945</text>
<line x1="820.500000000" y1="48.000000000" x2="820.500000000" y2="642.000000000" stroke="#c8c8c8" stroke-width="1"/>
<line x1="105.000000000" y1="582.600000000" x2="900.000000000" y2="582.600000000" stroke="#c8c8c8" stroke-width="1"/>
<line x1="900.000000000" y1="48.000000000" x2="900.000000000" y2="642.000000000" stroke="#c8c8c8" stroke-width="1"/>
<line x1="105.000000000" y1="642.000000000" x2="900.000000000" y2="642.000000000" stroke="#c8c8c8" stroke-width="1"/>
<text x="900.000000000" y="666.000000000" text-anchor="middle" font-family="sans-serif" font-size="12">1.00</text>
<text x="95.00" y="646.00" text-anchor="end" font-family="sans-serif" font-size="12">0.999961148</text>
<rect x="105" y="48" width="795" height="594" fill="none" stroke="#222" stroke-width="1.5"/>
<path d="M 105 177.422 L 184.5 188.213 L 264 200.523 L 343.5 219.196 L 423 243.06 L 502.5 262.518 L 582 299.888 L 661.5 331.913 L 741 371.786 L 820.5 412.686 L 900 458.181" fill="none" stroke="#1f77b4" stroke-width="3"/>
<line x1="105" y1="116.538461539" x2="105" y2="238.305069812" stroke="#1f77b4" stroke-width="2" opacity="0.85"/>
<line x1="100" y1="116.538461539" x2="110" y2="116.538461539" stroke="#1f77b4" stroke-width="2" opacity="0.85"/>
<line x1="100" y1="238.305069812" x2="110" y2="238.305069812" stroke="#1f77b4" stroke-width="2" opacity="0.85"/>
<circle cx="105" cy="177.421765676" r="4" fill="#1f77b4"/>
<line x1="184.5" y1="123.724514389" x2="184.5" y2="252.70199394" stroke="#1f77b4" stroke-width="2" opacity="0.85"/>
<line x1="179.5" y1="123.724514389" x2="189.5" y2="123.724514389" stroke="#1f77b4" stroke-width="2" opacity="0.85"/>
<line x1="179.5" y1="252.70199394" x2="189.5" y2="252.70199394" stroke="#1f77b4" stroke-width="2" opacity="0.85"/>
<circle cx="184.5" cy="188.213254164" r="4" fill="#1f77b4"/>
<line x1="264" y1="130.034741408" x2="264" y2="271.011709527" stroke="#1f77b4" stroke-width="2" opacity="0.85"/>
<line x1="259" y1="130.034741408" x2="269" y2="130.034741408" stroke="#1f77b4" stroke-width="2" opacity="0.85"/>
<line x1="259" y1="271.011709527" x2="269" y2="271.011709527" stroke="#1f77b4" stroke-width="2" opacity="0.85"/>
<circle cx="264" cy="200.523225468" r="4" fill="#1f77b4"/>
<line x1="343.5" y1="143.380782057" x2="343.5" y2="295.012193589" stroke="#1f77b4" stroke-width="2" opacity="0.85"/>
<line x1="338.5" y1="143.380782057" x2="348.5" y2="143.380782057" stroke="#1f77b4" stroke-width="2" opacity="0.85"/>
<line x1="338.5" y1="295.012193589" x2="348.5" y2="295.012193589" stroke="#1f77b4" stroke-width="2" opacity="0.85"/>
<circle cx="343.5" cy="219.196487823" r="4" fill="#1f77b4"/>
<line x1="423" y1="159.728836421" x2="423" y2="326.390265374" stroke="#1f77b4" stroke-width="2" opacity="0.85"/>
<line x1="418" y1="159.728836421" x2="428" y2="159.728836421" stroke="#1f77b4" stroke-width="2" opacity="0.85"/>
<line x1="418" y1="326.390265374" x2="428" y2="326.390265374" stroke="#1f77b4" stroke-width="2" opacity="0.85"/>
<circle cx="423" cy="243.059550897" r="4" fill="#1f77b4"/>
<line x1="502.5" y1="175.326682814" x2="502.5" y2="349.708728256" stroke="#1f77b4" stroke-width="2" opacity="0.85"/>
<line x1="497.5" y1="175.326682814" x2="507.5" y2="175.326682814" stroke="#1f77b4" stroke-width="2" opacity="0.85"/>
<line x1="497.5" y1="349.708728256" x2="507.5" y2="349.708728256" stroke="#1f77b4" stroke-width="2" opacity="0.85"/>
<circle cx="502.5" cy="262.517705535" r="4" fill="#1f77b4"/>
<line x1="582" y1="209.703329629" x2="582" y2="390.072337275" stroke="#1f77b4" stroke-width="2" opacity="0.85"/>
<line x1="577" y1="209.703329629" x2="587" y2="209.703329629" stroke="#1f77b4" stroke-width="2" opacity="0.85"/>
<line x1="577" y1="390.072337275" x2="587" y2="390.072337275" stroke="#1f77b4" stroke-width="2" opacity="0.85"/>
<circle cx="582" cy="299.887833453" r="4" fill="#1f77b4"/>
<line x1="661.5" y1="225.806051097" x2="661.5" y2="438.019423125" stroke="#1f77b4" stroke-width="2" opacity="0.85"/>
<line x1="656.5" y1="225.806051097" x2="666.5" y2="225.806051097" stroke="#1f77b4" stroke-width="2" opacity="0.85"/>
<line x1="656.5" y1="438.019423125" x2="666.5" y2="438.019423125" stroke="#1f77b4" stroke-width="2" opacity="0.85"/>
<circle cx="661.5" cy="331.912737111" r="4" fill="#1f77b4"/>
<line x1="741" y1="267.030662265" x2="741" y2="476.540831894" stroke="#1f77b4" stroke-width="2" opacity="0.85"/>
<line x1="736" y1="267.030662265" x2="746" y2="267.030662265" stroke="#1f77b4" stroke-width="2" opacity="0.85"/>
<line x1="736" y1="476.540831894" x2="746" y2="476.540831894" stroke="#1f77b4" stroke-width="2" opacity="0.85"/>
<circle cx="741" cy="371.78574708" r="4" fill="#1f77b4"/>
<line x1="820.5" y1="304.618747701" x2="820.5" y2="520.752289159" stroke="#1f77b4" stroke-width="2" opacity="0.85"/>
<line x1="815.5" y1="304.618747701" x2="825.5" y2="304.618747701" stroke="#1f77b4" stroke-width="2" opacity="0.85"/>
<line x1="815.5" y1="520.752289159" x2="825.5" y2="520.752289159" stroke="#1f77b4" stroke-width="2" opacity="0.85"/>
<circle cx="820.5" cy="412.68551843" r="4" fill="#1f77b4"/>
<line x1="900" y1="342.901172802" x2="900" y2="573.461538462" stroke="#1f77b4" stroke-width="2" opacity="0.85"/>
<line x1="895" y1="342.901172802" x2="905" y2="342.901172802" stroke="#1f77b4" stroke-width="2" opacity="0.85"/>
<line x1="895" y1="573.461538462" x2="905" y2="573.461538462" stroke="#1f77b4" stroke-width="2" opacity="0.85"/>
<circle cx="900" cy="458.181355632" r="4" fill="#1f77b4"/>
<line x1="900" y1="48" x2="900" y2="642" stroke="#1f77b4" stroke-width="1.5" stroke-dasharray="7,5" opacity="0.8"/>
<line x1="930" y1="70" x2="972" y2="70" stroke="#1f77b4" stroke-width="3"/>
<text x="982" y="74" font-family="sans-serif" font-size="12">fresh full deviations trained for the selected count</text>
<text x="982" y="90" font-family="sans-serif" font-size="11" fill="#555">1/E[X^2]=1.0000</text>
<text x="930" y="685" font-family="sans-serif" font-size="11" fill="#555">Error bars: mean +/- sample stddev</text>
<text x="502.5" y="698" text-anchor="middle" font-family="sans-serif" font-size="14">Kelly multiplier</text>
<text x="24" y="345" transform="rotate(-90 24 345)" text-anchor="middle" font-family="sans-serif" font-size="14">Expected growth per round</text>
</svg>
